<svg xmlns="http://www.w3.org/2000/svg" width="1027.3662" height="614" viewBox="0 0 1027.3662 614"><rect x="0" y="0" width="1027.3662" height="614" fill="#FFFFFF"/><defs><marker id="arrow-0" viewBox="0 0 10 10" refX="5" refY="5" markerUnits="userSpaceOnUse" markerWidth="8" markerHeight="8" orient="auto"><path d="M 0 0 L 10 5 L 0 10 z" fill="#2F3B4D" stroke="#2F3B4D" stroke-width="1" stroke-dasharray="1,0"/></marker><marker id="arrow-start-0" viewBox="0 0 10 10" refX="4.5" refY="5" markerUnits="userSpaceOnUse" markerWidth="8" markerHeight="8" orient="auto"><path d="M 0 5 L 10 10 L 10 0 z" fill="#2F3B4D" stroke="#2F3B4D" stroke-width="1" stroke-dasharray="1,0"/></marker></defs><path id="edge-0" class="edgePath" data-edge-id="edge-0" d="M 539.688,85.000 L 620.171,85.000 Q 630.171,85.000 630.171,95.000 L 630.171,255.000 Q 630.171,265.000 640.171,265.000 L 764.653,265.000" fill="none" stroke="#2F3B4D" stroke-width="2"    stroke-linecap="round" stroke-linejoin="round" /><g transform="translate(764.65 265.00) rotate(0.00)"><polygon points="0,0 -7.50,3.90 -7.50,-3.90" fill="#2F3B4D"/></g><rect data-edge-id="edge-0" data-label-kind="center" x="568.19" y="54.60" width="83.69" height="28.40" rx="2" ry="2" fill="rgba(248,250,252, 0.92)" fill-opacity="0.00" stroke="#7B88A8" stroke-opacity="0.00" stroke-width="0.8"/><g class="edgeLabel" data-edge-id="edge-0" data-label-kind="center"><text x="610.03" y="72.80" text-anchor="middle" font-family="trebuchet ms,verdana,arial,DejaVu Sans,Liberation Sans,sans-serif,Noto Color Emoji,Apple Color Emoji,Segoe UI Emoji" font-size="16" fill="#333333"><tspan x="610.03" dy="0.00">realizes</tspan></text></g><path id="edge-1" class="edgePath" data-edge-id="edge-1" d="M 558.359,213.000 L 569.327,213.000 Q 578.300,213.000 578.300,221.974 L 578.300,257.412 Q 578.300,267.412 588.300,267.412 L 764.653,267.412" fill="none" stroke="#2F3B4D" stroke-width="2"    stroke-linecap="round" stroke-linejoin="round" /><g transform="translate(764.65 267.41) rotate(0.00)"><polygon points="0,0 -7.50,3.90 -7.50,-3.90" fill="#2F3B4D"/></g><rect data-edge-id="edge-1" data-label-kind="center" x="492.72" y="223.99" width="83.69" height="28.40" rx="2" ry="2" fill="rgba(248,250,252, 0.92)" fill-opacity="0.00" stroke="#7B88A8" stroke-opacity="0.00" stroke-width="0.8"/><g class="edgeLabel" data-edge-id="edge-1" data-label-kind="center"><text x="534.56" y="242.19" text-anchor="middle" font-family="trebuchet ms,verdana,arial,DejaVu Sans,Liberation Sans,sans-serif,Noto Color Emoji,Apple Color Emoji,Segoe UI Emoji" font-size="16" fill="#333333"><tspan x="534.56" dy="0.00">realizes</tspan></text></g><path id="edge-2" class="edgePath" data-edge-id="edge-2" d="M 530.352,303.000 L 530.352,315.210 Q 530.352,325.200 540.342,325.200 L 754.663,325.200 Q 764.653,325.200 764.653,315.210 L 764.653,303.000" fill="none" stroke="#2F3B4D" stroke-width="2"    stroke-linecap="round" stroke-linejoin="round" /><g transform="translate(764.65 303.00) rotate(-90.00)"><polygon points="0,0 -7.50,3.90 -7.50,-3.90" fill="#2F3B4D"/></g><rect data-edge-id="edge-2" data-label-kind="center" x="605.66" y="327.20" width="83.69" height="28.40" rx="2" ry="2" fill="rgba(248,250,252, 0.92)" fill-opacity="0.00" stroke="#7B88A8" stroke-opacity="0.00" stroke-width="0.8"/><g class="edgeLabel" data-edge-id="edge-2" data-label-kind="center"><text x="647.50" y="345.40" text-anchor="middle" font-family="trebuchet ms,verdana,arial,DejaVu Sans,Liberation Sans,sans-serif,Noto Color Emoji,Apple Color Emoji,Segoe UI Emoji" font-size="16" fill="#333333"><tspan x="647.50" dy="0.00">realizes</tspan></text></g><path id="edge-3" class="edgePath" data-edge-id="edge-3" d="M 539.688,401.421 L 729.953,401.421 Q 739.953,401.421 739.953,391.421 L 739.953,347.855 Q 739.953,337.855 749.953,337.855 L 764.653,337.855" fill="none" stroke="#2F3B4D" stroke-width="2"    stroke-linecap="round" stroke-linejoin="round" /><g transform="translate(764.65 337.86) rotate(0.00)"><polygon points="0,0 -7.50,3.90 -7.50,-3.90" fill="#2F3B4D"/></g><rect data-edge-id="edge-3" data-label-kind="center" x="578.11" y="403.42" width="83.69" height="28.40" rx="2" ry="2" fill="rgba(248,250,252, 0.92)" fill-opacity="0.00" stroke="#7B88A8" stroke-opacity="0.00" stroke-width="0.8"/><g class="edgeLabel" data-edge-id="edge-3" data-label-kind="center"><text x="619.95" y="421.62" text-anchor="middle" font-family="trebuchet ms,verdana,arial,DejaVu Sans,Liberation Sans,sans-serif,Noto Color Emoji,Apple Color Emoji,Segoe UI Emoji" font-size="16" fill="#333333"><tspan x="619.95" dy="0.00">realizes</tspan></text></g><path id="edge-4" class="edgePath" data-edge-id="edge-4" d="M 623.708,521.000 L 737.153,521.000 Q 747.153,521.000 747.153,511.000 L 747.153,348.875 Q 747.153,341.000 755.028,341.000 L 764.653,341.000" fill="none" stroke="#2F3B4D" stroke-width="2"    stroke-linecap="round" stroke-linejoin="round" /><g transform="translate(764.65 341.00) rotate(0.00)"><polygon points="0,0 -7.50,3.90 -7.50,-3.90" fill="#2F3B4D"/></g><rect data-edge-id="edge-4" data-label-kind="center" x="643.59" y="523.00" width="83.69" height="28.40" rx="2" ry="2" fill="rgba(248,250,252, 0.92)" fill-opacity="0.00" stroke="#7B88A8" stroke-opacity="0.00" stroke-width="0.8"/><g class="edgeLabel" data-edge-id="edge-4" data-label-kind="center"><text x="685.43" y="541.20" text-anchor="middle" font-family="trebuchet ms,verdana,arial,DejaVu Sans,Liberation Sans,sans-serif,Noto Color Emoji,Apple Color Emoji,Segoe UI Emoji" font-size="16" fill="#333333"><tspan x="685.43" dy="0.00">realizes</tspan></text></g><path id="edge-5" class="edgePath" data-edge-id="edge-5" d="M 226.706,277.000 L 236.331,277.000 Q 244.206,277.000 246.856,269.584 L 310.167,92.416 Q 312.817,85.000 320.692,85.000 L 330.317,85.000" fill="none" stroke="#2F3B4D" stroke-width="2"    stroke-linecap="round" stroke-linejoin="round" /><g transform="translate(330.32 85.00) rotate(0.00)"><polygon points="0,0 -7.50,3.90 -7.50,-3.90" fill="#2F3B4D"/></g><rect data-edge-id="edge-5" data-label-kind="center" x="246.87" y="105.78" width="46.35" height="28.40" rx="2" ry="2" fill="rgba(248,250,252, 0.92)" fill-opacity="0.00" stroke="#7B88A8" stroke-opacity="0.00" stroke-width="0.8"/><g class="edgeLabel" data-edge-id="edge-5" data-label-kind="center"><text x="270.05" y="123.98" text-anchor="middle" font-family="trebuchet ms,verdana,arial,DejaVu Sans,Liberation Sans,sans-serif,Noto Color Emoji,Apple Color Emoji,Segoe UI Emoji" font-size="16" fill="#333333"><tspan x="270.05" dy="0.00">owns</tspan></text></g><path id="edge-6" class="edgePath" data-edge-id="edge-6" d="M 226.706,277.000 L 236.331,277.000 Q 244.206,277.000 249.964,271.628 L 307.059,218.372 Q 312.817,213.000 320.692,213.000 L 330.317,213.000" fill="none" stroke="#2F3B4D" stroke-width="2"    stroke-linecap="round" stroke-linejoin="round" /><g transform="translate(330.32 213.00) rotate(0.00)"><polygon points="0,0 -7.50,3.90 -7.50,-3.90" fill="#2F3B4D"/></g><rect data-edge-id="edge-6" data-label-kind="center" x="263.67" y="142.90" width="46.35" height="28.40" rx="2" ry="2" fill="rgba(248,250,252, 0.92)" fill-opacity="0.00" stroke="#7B88A8" stroke-opacity="0.00" stroke-width="0.8"/><g class="edgeLabel" data-edge-id="edge-6" data-label-kind="center"><text x="286.85" y="161.10" text-anchor="middle" font-family="trebuchet ms,verdana,arial,DejaVu Sans,Liberation Sans,sans-serif,Noto Color Emoji,Apple Color Emoji,Segoe UI Emoji" font-size="16" fill="#333333"><tspan x="286.85" dy="0.00">owns</tspan></text></g><path id="edge-7" class="edgePath" data-edge-id="edge-7" d="M 226.706,310.347 L 236.331,310.347 Q 244.206,310.347 252.036,309.508 L 304.987,303.838 Q 312.817,303.000 320.692,303.000 L 330.317,303.000" fill="none" stroke="#2F3B4D" stroke-width="2"    stroke-linecap="round" stroke-linejoin="round" /><g transform="translate(330.32 303.00) rotate(0.00)"><polygon points="0,0 -7.50,3.90 -7.50,-3.90" fill="#2F3B4D"/></g><rect data-edge-id="edge-7" data-label-kind="center" x="249.89" y="274.97" width="46.35" height="28.40" rx="2" ry="2" fill="rgba(248,250,252, 0.92)" fill-opacity="0.00" stroke="#7B88A8" stroke-opacity="0.00" stroke-width="0.8"/><g class="edgeLabel" data-edge-id="edge-7" data-label-kind="center"><text x="273.06" y="293.17" text-anchor="middle" font-family="trebuchet ms,verdana,arial,DejaVu Sans,Liberation Sans,sans-serif,Noto Color Emoji,Apple Color Emoji,Segoe UI Emoji" font-size="16" fill="#333333"><tspan x="273.06" dy="0.00">owns</tspan></text></g><path id="edge-8" class="edgePath" data-edge-id="edge-8" d="M 226.706,329.000 L 236.331,329.000 Q 244.206,329.000 249.964,334.372 L 307.059,387.628 Q 312.817,393.000 320.692,393.000 L 330.317,393.000" fill="none" stroke="#2F3B4D" stroke-width="2"    stroke-linecap="round" stroke-linejoin="round" /><g transform="translate(330.32 393.00) rotate(0.00)"><polygon points="0,0 -7.50,3.90 -7.50,-3.90" fill="#2F3B4D"/></g><rect data-edge-id="edge-8" data-label-kind="center" x="263.67" y="434.70" width="46.35" height="28.40" rx="2" ry="2" fill="rgba(248,250,252, 0.92)" fill-opacity="0.00" stroke="#7B88A8" stroke-opacity="0.00" stroke-width="0.8"/><g class="edgeLabel" data-edge-id="edge-8" data-label-kind="center"><text x="286.85" y="452.90" text-anchor="middle" font-family="trebuchet ms,verdana,arial,DejaVu Sans,Liberation Sans,sans-serif,Noto Color Emoji,Apple Color Emoji,Segoe UI Emoji" font-size="16" fill="#333333"><tspan x="286.85" dy="0.00">owns</tspan></text></g><path id="edge-9" class="edgePath" data-edge-id="edge-9" d="M 226.706,329.000 L 236.331,329.000 Q 244.206,329.000 246.856,336.416 L 310.167,513.584 Q 312.817,521.000 320.692,521.000 L 330.317,521.000" fill="none" stroke="#2F3B4D" stroke-width="2"    stroke-linecap="round" stroke-linejoin="round" /><g transform="translate(330.32 521.00) rotate(0.00)"><polygon points="0,0 -7.50,3.90 -7.50,-3.90" fill="#2F3B4D"/></g><rect data-edge-id="edge-9" data-label-kind="center" x="269.10" y="522.90" width="46.35" height="28.40" rx="2" ry="2" fill="rgba(248,250,252, 0.92)" fill-opacity="0.00" stroke="#7B88A8" stroke-opacity="0.00" stroke-width="0.8"/><g class="edgeLabel" data-edge-id="edge-9" data-label-kind="center"><text x="292.27" y="541.10" text-anchor="middle" font-family="trebuchet ms,verdana,arial,DejaVu Sans,Liberation Sans,sans-serif,Noto Color Emoji,Apple Color Emoji,Segoe UI Emoji" font-size="16" fill="#333333"><tspan x="292.27" dy="0.00">owns</tspan></text></g><rect x="330.32" y="8.00" width="209.37" height="78.00" rx="3" ry="3" fill="#ECECFF" stroke="#7B88A8" stroke-width="1" stroke-linejoin="round" stroke-linecap="round"/><text x="435.00" y="39.00" text-anchor="middle" font-family="trebuchet ms,verdana,arial,DejaVu Sans,Liberation Sans,sans-serif,Noto Color Emoji,Apple Color Emoji,Segoe UI Emoji" font-size="16" fill="#333333"><tspan x="435.00" dy="0.00">AllocateGeometry</tspan><tspan x="435.00" dy="24.00">(functionality)</tspan></text><rect x="330.32" y="136.00" width="228.04" height="78.00" rx="3" ry="3" fill="#ECECFF" stroke="#7B88A8" stroke-width="1" stroke-linejoin="round" stroke-linecap="round"/><text x="444.34" y="167.00" text-anchor="middle" font-family="trebuchet ms,verdana,arial,DejaVu Sans,Liberation Sans,sans-serif,Noto Color Emoji,Apple Color Emoji,Segoe UI Emoji" font-size="16" fill="#333333"><tspan x="444.34" dy="0.00">BuildPreparedFrame</tspan><tspan x="444.34" dy="24.00">(functionality)</tspan></text><rect x="330.32" y="264.00" width="200.03" height="78.00" rx="3" ry="3" fill="#ECECFF" stroke="#7B88A8" stroke-width="1" stroke-linejoin="round" stroke-linecap="round"/><text x="430.33" y="295.00" text-anchor="middle" font-family="trebuchet ms,verdana,arial,DejaVu Sans,Liberation Sans,sans-serif,Noto Color Emoji,Apple Color Emoji,Segoe UI Emoji" font-size="16" fill="#333333"><tspan x="430.33" dy="0.00">ComputeClipping</tspan><tspan x="430.33" dy="24.00">(functionality)</tspan></text><rect x="330.32" y="392.00" width="209.37" height="78.00" rx="3" ry="3" fill="#ECECFF" stroke="#7B88A8" stroke-width="1" stroke-linejoin="round" stroke-linecap="round"/><text x="435.00" y="423.00" text-anchor="middle" font-family="trebuchet ms,verdana,arial,DejaVu Sans,Liberation Sans,sans-serif,Noto Color Emoji,Apple Color Emoji,Segoe UI Emoji" font-size="16" fill="#333333"><tspan x="435.00" dy="0.00">MeasureUiContent</tspan><tspan x="435.00" dy="24.00">(functionality)</tspan></text><rect x="764.65" y="264.00" width="246.71" height="78.00" rx="3" ry="3" fill="#ECECFF" stroke="#7B88A8" stroke-width="1" stroke-linejoin="round" stroke-linecap="round"/><text x="888.01" y="295.00" text-anchor="middle" font-family="trebuchet ms,verdana,arial,DejaVu Sans,Liberation Sans,sans-serif,Noto Color Emoji,Apple Color Emoji,Segoe UI Emoji" font-size="16" fill="#333333"><tspan x="888.01" dy="0.00">MeasuredPresentation</tspan><tspan x="888.01" dy="24.00">(capability)</tspan></text><rect x="330.32" y="520.00" width="293.39" height="78.00" rx="3" ry="3" fill="#ECECFF" stroke="#7B88A8" stroke-width="1" stroke-linejoin="round" stroke-linecap="round"/><text x="477.01" y="551.00" text-anchor="middle" font-family="trebuchet ms,verdana,arial,DejaVu Sans,Liberation Sans,sans-serif,Noto Color Emoji,Apple Color Emoji,Segoe UI Emoji" font-size="16" fill="#333333"><tspan x="477.01" dy="0.00">ResolveAncestorDimensions</tspan><tspan x="477.01" dy="24.00">(functionality)</tspan></text><rect x="8.00" y="276.00" width="218.71" height="54.00" rx="3" ry="3" fill="#ECECFF" stroke="#7B88A8" stroke-width="1" stroke-linejoin="round" stroke-linecap="round"/><text x="117.35" y="307.00" text-anchor="middle" font-family="trebuchet ms,verdana,arial,DejaVu Sans,Liberation Sans,sans-serif,Noto Color Emoji,Apple Color Emoji,Segoe UI Emoji" font-size="16" fill="#333333"><tspan x="117.35" dy="0.00">SduiLayout (unit)</tspan></text></svg>