<svg xmlns="http://www.w3.org/2000/svg" width="723.43933" height="376.16922" viewBox="0 0 723.43933 376.16922"><rect x="0" y="0" width="723.43933" height="376.16922" fill="#FFFFFF"/><defs><marker id="arrow-0" viewBox="0 0 10 10" refX="5" refY="5" markerUnits="userSpaceOnUse" markerWidth="8" markerHeight="8" orient="auto"><path d="M 0 0 L 10 5 L 0 10 z" fill="#2F3B4D" stroke="#2F3B4D" stroke-width="1" stroke-dasharray="1,0"/></marker><marker id="arrow-start-0" viewBox="0 0 10 10" refX="4.5" refY="5" markerUnits="userSpaceOnUse" markerWidth="8" markerHeight="8" orient="auto"><path d="M 0 5 L 10 10 L 10 0 z" fill="#2F3B4D" stroke="#2F3B4D" stroke-width="1" stroke-dasharray="1,0"/></marker></defs><path id="edge-0" class="edgePath" data-edge-id="edge-0" d="M 208.035,267.444 L 309.570,267.444 Q 319.570,267.444 319.570,257.444 L 319.570,232.169 Q 319.570,222.169 329.570,222.169 L 432.720,222.169" fill="none" stroke="#2F3B4D" stroke-width="2"    stroke-linecap="round" stroke-linejoin="round" /><g transform="translate(432.72 222.17) rotate(0.00)"><polygon points="0,0 -7.50,3.90 -7.50,-3.90" fill="#2F3B4D"/></g><rect data-edge-id="edge-0" data-label-kind="center" x="241.37" y="237.19" width="46.35" height="28.40" rx="2" ry="2" fill="rgba(248,250,252, 0.92)" fill-opacity="0.00" stroke="#7B88A8" stroke-opacity="0.00" stroke-width="0.8"/><g class="edgeLabel" data-edge-id="edge-0" data-label-kind="center"><text x="264.55" y="255.39" text-anchor="middle" font-family="trebuchet ms,verdana,arial,DejaVu Sans,Liberation Sans,sans-serif,Noto Color Emoji,Apple Color Emoji,Segoe UI Emoji" font-size="16" fill="#333333"><tspan x="264.55" dy="0.00">owns</tspan></text></g><path id="edge-1" class="edgePath" data-edge-id="edge-1" d="M 208.035,295.628 L 217.660,295.628 Q 225.535,295.628 233.380,296.312 L 407.374,311.485 Q 415.220,312.169 423.095,312.169 L 432.720,312.169" fill="none" stroke="#2F3B4D" stroke-width="2"    stroke-linecap="round" stroke-linejoin="round" /><g transform="translate(432.72 312.17) rotate(0.00)"><polygon points="0,0 -7.50,3.90 -7.50,-3.90" fill="#2F3B4D"/></g><rect data-edge-id="edge-1" data-label-kind="center" x="295.65" y="307.46" width="46.35" height="28.40" rx="2" ry="2" fill="rgba(248,250,252, 0.92)" fill-opacity="0.00" stroke="#7B88A8" stroke-opacity="0.00" stroke-width="0.8"/><g class="edgeLabel" data-edge-id="edge-1" data-label-kind="center"><text x="318.83" y="325.66" text-anchor="middle" font-family="trebuchet ms,verdana,arial,DejaVu Sans,Liberation Sans,sans-serif,Noto Color Emoji,Apple Color Emoji,Segoe UI Emoji" font-size="16" fill="#333333"><tspan x="318.83" dy="0.00">owns</tspan></text></g><path id="edge-2" class="edgePath" data-edge-id="edge-2" d="M 282.720,179.059 L 282.720,188.274 Q 282.720,195.814 290.260,195.814 L 422.720,195.814 Q 432.720,195.814 432.720,185.814 L 432.720,168.169" fill="none" stroke="#2F3B4D" stroke-width="2"    stroke-linecap="round" stroke-linejoin="round" /><g transform="translate(432.72 168.17) rotate(-90.00)"><polygon points="0,0 -7.50,3.90 -7.50,-3.90" fill="#2F3B4D"/></g><rect data-edge-id="edge-2" data-label-kind="center" x="327.21" y="165.41" width="93.02" height="28.40" rx="2" ry="2" fill="rgba(248,250,252, 0.92)" fill-opacity="0.00" stroke="#7B88A8" stroke-opacity="0.00" stroke-width="0.8"/><g class="edgeLabel" data-edge-id="edge-2" data-label-kind="center"><text x="373.72" y="183.61" text-anchor="middle" font-family="trebuchet ms,verdana,arial,DejaVu Sans,Liberation Sans,sans-serif,Noto Color Emoji,Apple Color Emoji,Segoe UI Emoji" font-size="16" fill="#333333"><tspan x="373.72" dy="0.00">addresses</tspan></text></g><path id="edge-3" class="edgePath" data-edge-id="edge-3" d="M 282.720,127.958 L 401.169,127.958 Q 411.169,127.958 411.169,117.958 L 411.169,103.867 Q 411.169,94.169 420.867,94.169 L 432.720,94.169" fill="none" stroke="#2F3B4D" stroke-width="2"    stroke-linecap="round" stroke-linejoin="round" /><g transform="translate(432.72 94.17) rotate(0.00)"><polygon points="0,0 -7.50,3.90 -7.50,-3.90" fill="#2F3B4D"/></g><rect data-edge-id="edge-3" data-label-kind="center" x="316.15" y="97.79" width="93.02" height="28.40" rx="2" ry="2" fill="rgba(248,250,252, 0.92)" fill-opacity="0.00" stroke="#7B88A8" stroke-opacity="0.00" stroke-width="0.8"/><g class="edgeLabel" data-edge-id="edge-3" data-label-kind="center"><text x="362.66" y="115.99" text-anchor="middle" font-family="trebuchet ms,verdana,arial,DejaVu Sans,Liberation Sans,sans-serif,Noto Color Emoji,Apple Color Emoji,Segoe UI Emoji" font-size="16" fill="#333333"><tspan x="362.66" dy="0.00">addresses</tspan></text></g><path id="edge-4" class="edgePath" data-edge-id="edge-4" d="M 282.720,201.059 L 295.720,201.059 Q 305.720,201.059 305.720,211.059 L 305.720,264.169 Q 305.720,274.169 315.720,274.169 L 432.720,274.169" fill="none" stroke="#2F3B4D" stroke-width="2"    stroke-linecap="round" stroke-linejoin="round" /><g transform="translate(432.72 274.17) rotate(0.00)"><polygon points="0,0 -7.50,3.90 -7.50,-3.90" fill="#2F3B4D"/></g><rect data-edge-id="edge-4" data-label-kind="center" x="217.19" y="339.77" width="93.02" height="28.40" rx="2" ry="2" fill="rgba(248,250,252, 0.92)" fill-opacity="0.00" stroke="#7B88A8" stroke-opacity="0.00" stroke-width="0.8"/><g class="edgeLabel" data-edge-id="edge-4" data-label-kind="center"><text x="263.70" y="357.97" text-anchor="middle" font-family="trebuchet ms,verdana,arial,DejaVu Sans,Liberation Sans,sans-serif,Noto Color Emoji,Apple Color Emoji,Segoe UI Emoji" font-size="16" fill="#333333"><tspan x="263.70" dy="0.00">addresses</tspan></text></g><path id="edge-5" class="edgePath" data-edge-id="edge-5" d="M 282.720,35.000 L 292.345,35.000 Q 300.220,35.000 308.087,35.354 L 407.353,39.816 Q 415.220,40.169 423.095,40.169 L 432.720,40.169" fill="none" stroke="#2F3B4D" stroke-width="2"    stroke-linecap="round" stroke-linejoin="round" /><g transform="translate(432.72 40.17) rotate(0.00)"><polygon points="0,0 -7.50,3.90 -7.50,-3.90" fill="#2F3B4D"/></g><rect data-edge-id="edge-5" data-label-kind="center" x="305.38" y="5.20" width="46.35" height="28.40" rx="2" ry="2" fill="rgba(248,250,252, 0.92)" fill-opacity="0.00" stroke="#7B88A8" stroke-opacity="0.00" stroke-width="0.8"/><g class="edgeLabel" data-edge-id="edge-5" data-label-kind="center"><text x="328.55" y="23.40" text-anchor="middle" font-family="trebuchet ms,verdana,arial,DejaVu Sans,Liberation Sans,sans-serif,Noto Color Emoji,Apple Color Emoji,Segoe UI Emoji" font-size="16" fill="#333333"><tspan x="328.55" dy="0.00">owns</tspan></text></g><rect x="8.00" y="252.06" width="200.03" height="78.00" rx="3" ry="3" fill="#ECECFF" stroke="#7B88A8" stroke-width="1" stroke-linejoin="round" stroke-linecap="round"/><text x="108.02" y="283.06" text-anchor="middle" font-family="trebuchet ms,verdana,arial,DejaVu Sans,Liberation Sans,sans-serif,Noto Color Emoji,Apple Color Emoji,Segoe UI Emoji" font-size="16" fill="#333333"><tspan x="108.02" dy="0.00">CommandLineHost</tspan><tspan x="108.02" dy="24.00">(container)</tspan></text><rect x="432.72" y="145.17" width="256.05" height="78.00" rx="3" ry="3" fill="#ECECFF" stroke="#7B88A8" stroke-width="1" stroke-linejoin="round" stroke-linecap="round"/><text x="560.74" y="176.17" text-anchor="middle" font-family="trebuchet ms,verdana,arial,DejaVu Sans,Liberation Sans,sans-serif,Noto Color Emoji,Apple Color Emoji,Segoe UI Emoji" font-size="16" fill="#333333"><tspan x="560.74" dy="0.00">ComposeHeadlessExport</tspan><tspan x="560.74" dy="24.00">(functionality)</tspan></text><rect x="432.72" y="17.17" width="261.86" height="78.00" rx="3" ry="3" fill="#ECECFF" stroke="#7B88A8" stroke-width="1" stroke-linejoin="round" stroke-linecap="round"/><text x="563.65" y="48.17" text-anchor="middle" font-family="trebuchet ms,verdana,arial,DejaVu Sans,Liberation Sans,sans-serif,Noto Color Emoji,Apple Color Emoji,Segoe UI Emoji" font-size="16" fill="#333333"><tspan x="563.65" dy="0.00">ComposeMarkdownDocume</tspan><tspan x="563.65" dy="24.00">nt (functionality)</tspan></text><rect x="8.00" y="124.06" width="274.72" height="78.00" rx="3" ry="3" fill="#ECECFF" stroke="#7B88A8" stroke-width="1" stroke-linejoin="round" stroke-linecap="round"/><text x="145.36" y="155.06" text-anchor="middle" font-family="trebuchet ms,verdana,arial,DejaVu Sans,Liberation Sans,sans-serif,Noto Color Emoji,Apple Color Emoji,Segoe UI Emoji" font-size="16" fill="#333333"><tspan x="145.36" dy="0.00">G5M3DocumentationExport</tspan><tspan x="145.36" dy="24.00">(activity)</tspan></text><rect x="8.00" y="8.00" width="274.72" height="54.00" rx="3" ry="3" fill="#ECECFF" stroke="#7B88A8" stroke-width="1" stroke-linejoin="round" stroke-linecap="round"/><text x="145.36" y="39.00" text-anchor="middle" font-family="trebuchet ms,verdana,arial,DejaVu Sans,Liberation Sans,sans-serif,Noto Color Emoji,Apple Color Emoji,Segoe UI Emoji" font-size="16" fill="#333333"><tspan x="145.36" dy="0.00">SduiPresentation (unit)</tspan></text><rect x="432.72" y="273.17" width="274.72" height="78.00" rx="3" ry="3" fill="#ECECFF" stroke="#7B88A8" stroke-width="1" stroke-linejoin="round" stroke-linecap="round"/><text x="570.08" y="304.17" text-anchor="middle" font-family="trebuchet ms,verdana,arial,DejaVu Sans,Liberation Sans,sans-serif,Noto Color Emoji,Apple Color Emoji,Segoe UI Emoji" font-size="16" fill="#333333"><tspan x="570.08" dy="0.00">WriteGeneratedArtifacts</tspan><tspan x="570.08" dy="24.00">(functionality)</tspan></text></svg>