<svg xmlns="http://www.w3.org/2000/svg" width="647.2219" height="310" viewBox="0 0 647.2219 310"><rect x="0" y="0" width="647.2219" height="310" fill="#FFFFFF"/><defs><marker id="arrow-0" viewBox="0 0 10 10" refX="5" refY="5" markerUnits="userSpaceOnUse" markerWidth="8" markerHeight="8" orient="auto"><path d="M 0 0 L 10 5 L 0 10 z" fill="#2F3B4D" stroke="#2F3B4D" stroke-width="1" stroke-dasharray="1,0"/></marker><marker id="arrow-start-0" viewBox="0 0 10 10" refX="4.5" refY="5" markerUnits="userSpaceOnUse" markerWidth="8" markerHeight="8" orient="auto"><path d="M 0 5 L 10 10 L 10 0 z" fill="#2F3B4D" stroke="#2F3B4D" stroke-width="1" stroke-dasharray="1,0"/></marker></defs><path id="edge-0" class="edgePath" data-edge-id="edge-0" d="M 264.048,135.000 L 273.673,135.000 Q 281.548,135.000 289.364,134.035 L 377.865,123.109 Q 385.680,122.144 393.555,122.144 L 403.180,122.144" fill="none" stroke="#2F3B4D" stroke-width="2"    stroke-linecap="round" stroke-linejoin="round" /><g transform="translate(403.18 122.14) rotate(0.00)"><polygon points="0,0 -7.50,3.90 -7.50,-3.90" fill="#2F3B4D"/></g><rect data-edge-id="edge-0" data-label-kind="center" x="300.19" y="91.91" width="93.02" height="28.40" rx="2" ry="2" fill="rgba(248,250,252, 0.92)" fill-opacity="0.00" stroke="#7B88A8" stroke-opacity="0.00" stroke-width="0.8"/><g class="edgeLabel" data-edge-id="edge-0" data-label-kind="center"><text x="346.70" y="110.11" text-anchor="middle" font-family="trebuchet ms,verdana,arial,DejaVu Sans,Liberation Sans,sans-serif,Noto Color Emoji,Apple Color Emoji,Segoe UI Emoji" font-size="16" fill="#333333"><tspan x="346.70" dy="0.00">addresses</tspan></text></g><path id="edge-1" class="edgePath" data-edge-id="edge-1" d="M 264.048,188.762 L 273.673,188.762 Q 281.548,188.762 289.386,189.532 L 377.843,198.230 Q 385.680,199.000 393.555,199.000 L 403.180,199.000" fill="none" stroke="#2F3B4D" stroke-width="2"    stroke-linecap="round" stroke-linejoin="round" /><g transform="translate(403.18 199.00) rotate(0.00)"><polygon points="0,0 -7.50,3.90 -7.50,-3.90" fill="#2F3B4D"/></g><rect data-edge-id="edge-1" data-label-kind="center" x="289.12" y="159.20" width="93.02" height="28.40" rx="2" ry="2" fill="rgba(248,250,252, 0.92)" fill-opacity="0.00" stroke="#7B88A8" stroke-opacity="0.00" stroke-width="0.8"/><g class="edgeLabel" data-edge-id="edge-1" data-label-kind="center"><text x="335.63" y="177.40" text-anchor="middle" font-family="trebuchet ms,verdana,arial,DejaVu Sans,Liberation Sans,sans-serif,Noto Color Emoji,Apple Color Emoji,Segoe UI Emoji" font-size="16" fill="#333333"><tspan x="335.63" dy="0.00">addresses</tspan></text></g><path id="edge-2" class="edgePath" data-edge-id="edge-2" d="M 226.706,61.000 L 236.331,61.000 Q 244.206,61.000 252.061,61.555 L 377.825,70.445 Q 385.680,71.000 393.555,71.000 L 403.180,71.000" fill="none" stroke="#2F3B4D" stroke-width="2"    stroke-linecap="round" stroke-linejoin="round" /><g transform="translate(403.18 71.00) rotate(0.00)"><polygon points="0,0 -7.50,3.90 -7.50,-3.90" fill="#2F3B4D"/></g><rect data-edge-id="edge-2" data-label-kind="center" x="238.71" y="30.81" width="46.35" height="28.40" rx="2" ry="2" fill="rgba(248,250,252, 0.92)" fill-opacity="0.00" stroke="#7B88A8" stroke-opacity="0.00" stroke-width="0.8"/><g class="edgeLabel" data-edge-id="edge-2" data-label-kind="center"><text x="261.88" y="49.01" text-anchor="middle" font-family="trebuchet ms,verdana,arial,DejaVu Sans,Liberation Sans,sans-serif,Noto Color Emoji,Apple Color Emoji,Segoe UI Emoji" font-size="16" fill="#333333"><tspan x="261.88" dy="0.00">owns</tspan></text></g><path id="edge-3" class="edgePath" data-edge-id="edge-3" d="M 282.720,251.000 L 292.345,251.000 Q 300.220,251.000 308.084,250.585 L 377.816,246.902 Q 385.680,246.487 393.555,246.487 L 403.180,246.487" fill="none" stroke="#2F3B4D" stroke-width="2"    stroke-linecap="round" stroke-linejoin="round" /><g transform="translate(403.18 246.49) rotate(0.00)"><polygon points="0,0 -7.50,3.90 -7.50,-3.90" fill="#2F3B4D"/></g><rect data-edge-id="edge-3" data-label-kind="center" x="293.96" y="252.73" width="46.35" height="28.40" rx="2" ry="2" fill="rgba(248,250,252, 0.92)" fill-opacity="0.00" stroke="#7B88A8" stroke-opacity="0.00" stroke-width="0.8"/><g class="edgeLabel" data-edge-id="edge-3" data-label-kind="center"><text x="317.13" y="270.93" text-anchor="middle" font-family="trebuchet ms,verdana,arial,DejaVu Sans,Liberation Sans,sans-serif,Noto Color Emoji,Apple Color Emoji,Segoe UI Emoji" font-size="16" fill="#333333"><tspan x="317.13" dy="0.00">owns</tspan></text></g><rect x="403.18" y="48.00" width="228.04" height="78.00" rx="3" ry="3" fill="#ECECFF" stroke="#7B88A8" stroke-width="1" stroke-linejoin="round" stroke-linecap="round"/><text x="517.20" y="79.00" text-anchor="middle" font-family="trebuchet ms,verdana,arial,DejaVu Sans,Liberation Sans,sans-serif,Noto Color Emoji,Apple Color Emoji,Segoe UI Emoji" font-size="16" fill="#333333"><tspan x="517.20" dy="0.00">BuildPreparedFrame</tspan><tspan x="517.20" dy="24.00">(functionality)</tspan></text><rect x="403.18" y="176.00" width="218.71" height="78.00" rx="3" ry="3" fill="#ECECFF" stroke="#7B88A8" stroke-width="1" stroke-linejoin="round" stroke-linecap="round"/><text x="512.53" y="207.00" text-anchor="middle" font-family="trebuchet ms,verdana,arial,DejaVu Sans,Liberation Sans,sans-serif,Noto Color Emoji,Apple Color Emoji,Segoe UI Emoji" font-size="16" fill="#333333"><tspan x="512.53" dy="0.00">ExportSvgSnapshot</tspan><tspan x="512.53" dy="24.00">(functionality)</tspan></text><rect x="8.00" y="112.00" width="256.05" height="78.00" rx="3" ry="3" fill="#ECECFF" stroke="#7B88A8" stroke-width="1" stroke-linejoin="round" stroke-linecap="round"/><text x="136.02" y="143.00" text-anchor="middle" font-family="trebuchet ms,verdana,arial,DejaVu Sans,Liberation Sans,sans-serif,Noto Color Emoji,Apple Color Emoji,Segoe UI Emoji" font-size="16" fill="#333333"><tspan x="136.02" dy="0.00">G2M2SharedSvgGeometry</tspan><tspan x="136.02" dy="24.00">(activity)</tspan></text><rect x="8.00" y="8.00" width="218.71" height="54.00" rx="3" ry="3" fill="#ECECFF" stroke="#7B88A8" stroke-width="1" stroke-linejoin="round" stroke-linecap="round"/><text x="117.35" y="39.00" text-anchor="middle" font-family="trebuchet ms,verdana,arial,DejaVu Sans,Liberation Sans,sans-serif,Noto Color Emoji,Apple Color Emoji,Segoe UI Emoji" font-size="16" fill="#333333"><tspan x="117.35" dy="0.00">SduiLayout (unit)</tspan></text><rect x="8.00" y="240.00" width="274.72" height="54.00" rx="3" ry="3" fill="#ECECFF" stroke="#7B88A8" stroke-width="1" stroke-linejoin="round" stroke-linecap="round"/><text x="145.36" y="271.00" text-anchor="middle" font-family="trebuchet ms,verdana,arial,DejaVu Sans,Liberation Sans,sans-serif,Noto Color Emoji,Apple Color Emoji,Segoe UI Emoji" font-size="16" fill="#333333"><tspan x="145.36" dy="0.00">SduiPresentation (unit)</tspan></text></svg>