<svg xmlns="http://www.w3.org/2000/svg" width="1191.4933" height="699.45105" viewBox="0 0 1191.4933 699.45105"><rect x="0" y="0" width="1191.4933" height="699.45105" fill="#FFFFFF"/><defs><marker id="arrow-0" viewBox="0 0 10 10" refX="5" refY="5" markerUnits="userSpaceOnUse" markerWidth="8" markerHeight="8" orient="auto"><path d="M 0 0 L 10 5 L 0 10 z" fill="#2F3B4D" stroke="#2F3B4D" stroke-width="1" stroke-dasharray="1,0"/></marker><marker id="arrow-start-0" viewBox="0 0 10 10" refX="4.5" refY="5" markerUnits="userSpaceOnUse" markerWidth="8" markerHeight="8" orient="auto"><path d="M 0 5 L 10 10 L 10 0 z" fill="#2F3B4D" stroke="#2F3B4D" stroke-width="1" stroke-dasharray="1,0"/></marker></defs><path id="edge-0" class="edgePath" data-edge-id="edge-0" d="M 301.391,638.851 L 301.391,651.061 Q 301.391,661.051 311.381,661.051 L 401.628,661.051 Q 411.617,661.051 411.617,651.061 L 411.617,638.851" fill="none" stroke="#2F3B4D" stroke-width="2"    stroke-linecap="round" stroke-linejoin="round" /><g transform="translate(411.62 638.85) rotate(-90.00)"><polygon points="0,0 -7.50,3.90 -7.50,-3.90" fill="#2F3B4D"/></g><rect data-edge-id="edge-0" data-label-kind="center" x="333.70" y="663.05" width="46.35" height="28.40" rx="2" ry="2" fill="rgba(248,250,252, 0.92)" fill-opacity="0.00" stroke="#7B88A8" stroke-opacity="0.00" stroke-width="0.8"/><g class="edgeLabel" data-edge-id="edge-0" data-label-kind="center"><text x="356.87" y="681.25" text-anchor="middle" font-family="trebuchet ms,verdana,arial,DejaVu Sans,Liberation Sans,sans-serif,Noto Color Emoji,Apple Color Emoji,Segoe UI Emoji" font-size="16" fill="#333333"><tspan x="356.87" dy="0.00">owns</tspan></text></g><path id="edge-1" class="edgePath" data-edge-id="edge-1" d="M 648.995,188.900 L 823.708,188.900 Q 833.708,188.900 833.708,198.900 L 833.708,382.045" fill="none" stroke="#2F3B4D" stroke-width="2"    stroke-linecap="round" stroke-linejoin="round" /><g transform="translate(833.71 382.04) rotate(90.00)"><polygon points="0,0 -7.50,3.90 -7.50,-3.90" fill="#2F3B4D"/></g><rect data-edge-id="edge-1" data-label-kind="center" x="664.05" y="158.50" width="121.03" height="28.40" rx="2" ry="2" fill="rgba(248,250,252, 0.92)" fill-opacity="0.00" stroke="#7B88A8" stroke-opacity="0.00" stroke-width="0.8"/><g class="edgeLabel" data-edge-id="edge-1" data-label-kind="center"><text x="724.57" y="176.70" text-anchor="middle" font-family="trebuchet ms,verdana,arial,DejaVu Sans,Liberation Sans,sans-serif,Noto Color Emoji,Apple Color Emoji,Segoe UI Emoji" font-size="16" fill="#333333"><tspan x="724.57" dy="0.00">allocated-to</tspan></text></g><path id="edge-2" class="edgePath" data-edge-id="edge-2" d="M 648.995,203.500 L 685.170,203.500 Q 695.170,203.500 695.170,213.500 L 695.170,253.245 Q 695.170,263.245 705.170,263.245 L 850.512,263.245" fill="none" stroke="#2F3B4D" stroke-width="2"    stroke-linecap="round" stroke-linejoin="round" /><g transform="translate(850.51 263.24) rotate(0.00)"><polygon points="0,0 -7.50,3.90 -7.50,-3.90" fill="#2F3B4D"/></g><rect data-edge-id="edge-2" data-label-kind="center" x="692.12" y="201.68" width="139.70" height="28.40" rx="2" ry="2" fill="rgba(248,250,252, 0.92)" fill-opacity="0.95" stroke="#7B88A8" stroke-opacity="0.45" stroke-width="0.8"/><g class="edgeLabel" data-edge-id="edge-2" data-label-kind="center"><text x="761.97" y="219.88" text-anchor="middle" font-family="trebuchet ms,verdana,arial,DejaVu Sans,Liberation Sans,sans-serif,Noto Color Emoji,Apple Color Emoji,Segoe UI Emoji" font-size="16" fill="#333333"><tspan x="761.97" dy="0.00">contributes-to</tspan></text></g><path id="edge-3" class="edgePath" data-edge-id="edge-3" d="M 658.330,85.000 L 1165.493,85.000 Q 1175.493,85.000 1175.493,95.000 L 1175.493,398.045 Q 1175.493,408.045 1165.493,408.045 L 1080.421,408.045" fill="none" stroke="#2F3B4D" stroke-width="2"    stroke-linecap="round" stroke-linejoin="round" /><g transform="translate(1080.42 408.04) rotate(180.00)"><polygon points="0,0 -7.50,3.90 -7.50,-3.90" fill="#2F3B4D"/></g><rect data-edge-id="edge-3" data-label-kind="center" x="856.40" y="87.00" width="121.03" height="28.40" rx="2" ry="2" fill="rgba(248,250,252, 0.92)" fill-opacity="0.00" stroke="#7B88A8" stroke-opacity="0.00" stroke-width="0.8"/><g class="edgeLabel" data-edge-id="edge-3" data-label-kind="center"><text x="916.91" y="105.20" text-anchor="middle" font-family="trebuchet ms,verdana,arial,DejaVu Sans,Liberation Sans,sans-serif,Noto Color Emoji,Apple Color Emoji,Segoe UI Emoji" font-size="16" fill="#333333"><tspan x="916.91" dy="0.00">allocated-to</tspan></text></g><path id="edge-4" class="edgePath" data-edge-id="edge-4" d="M 658.330,85.000 L 830.912,85.000 Q 840.912,85.000 840.912,95.000 L 840.912,258.925 Q 840.912,263.245 845.232,263.245 L 850.512,263.245" fill="none" stroke="#2F3B4D" stroke-width="2"    stroke-linecap="round" stroke-linejoin="round" /><g transform="translate(850.51 263.24) rotate(0.00)"><polygon points="0,0 -7.50,3.90 -7.50,-3.90" fill="#2F3B4D"/></g><rect data-edge-id="edge-4" data-label-kind="center" x="699.21" y="94.96" width="139.70" height="28.40" rx="2" ry="2" fill="rgba(248,250,252, 0.92)" fill-opacity="0.00" stroke="#7B88A8" stroke-opacity="0.00" stroke-width="0.8"/><g class="edgeLabel" data-edge-id="edge-4" data-label-kind="center"><text x="769.06" y="113.16" text-anchor="middle" font-family="trebuchet ms,verdana,arial,DejaVu Sans,Liberation Sans,sans-serif,Noto Color Emoji,Apple Color Emoji,Segoe UI Emoji" font-size="16" fill="#333333"><tspan x="769.06" dy="0.00">contributes-to</tspan></text></g><path id="edge-5" class="edgePath" data-edge-id="edge-5" d="M 677.002,322.000 L 689.033,322.000 Q 698.877,322.000 698.877,331.844 L 698.877,382.170 Q 698.877,392.170 708.877,392.170 L 829.152,392.170 Q 833.708,392.170 833.708,387.614 L 833.708,382.045" fill="none" stroke="#2F3B4D" stroke-width="2"    stroke-linecap="round" stroke-linejoin="round" /><g transform="translate(833.71 382.04) rotate(-90.00)"><polygon points="0,0 -7.50,3.90 -7.50,-3.90" fill="#2F3B4D"/></g><rect data-edge-id="edge-5" data-label-kind="center" x="697.56" y="364.42" width="121.03" height="28.40" rx="2" ry="2" fill="rgba(248,250,252, 0.92)" fill-opacity="0.95" stroke="#7B88A8" stroke-opacity="0.45" stroke-width="0.8"/><g class="edgeLabel" data-edge-id="edge-5" data-label-kind="center"><text x="758.08" y="382.62" text-anchor="middle" font-family="trebuchet ms,verdana,arial,DejaVu Sans,Liberation Sans,sans-serif,Noto Color Emoji,Apple Color Emoji,Segoe UI Emoji" font-size="16" fill="#333333"><tspan x="758.08" dy="0.00">allocated-to</tspan></text></g><path id="edge-6" class="edgePath" data-edge-id="edge-6" d="M 677.002,293.243 L 677.002,299.058 L 677.002,292.537 Q 677.002,287.202 682.336,287.202 L 840.912,287.202 L 850.512,287.202" fill="none" stroke="#2F3B4D" stroke-width="2"    stroke-linecap="round" stroke-linejoin="round" /><g transform="translate(850.51 287.20) rotate(0.00)"><polygon points="0,0 -7.50,3.90 -7.50,-3.90" fill="#2F3B4D"/></g><rect data-edge-id="edge-6" data-label-kind="center" x="689.11" y="256.80" width="139.70" height="28.40" rx="2" ry="2" fill="rgba(248,250,252, 0.92)" fill-opacity="0.00" stroke="#7B88A8" stroke-opacity="0.00" stroke-width="0.8"/><g class="edgeLabel" data-edge-id="edge-6" data-label-kind="center"><text x="758.96" y="275.00" text-anchor="middle" font-family="trebuchet ms,verdana,arial,DejaVu Sans,Liberation Sans,sans-serif,Noto Color Emoji,Apple Color Emoji,Segoe UI Emoji" font-size="16" fill="#333333"><tspan x="758.96" dy="0.00">contributes-to</tspan></text></g><path id="edge-7" class="edgePath" data-edge-id="edge-7" d="M 705.008,483.000 L 795.872,483.000 Q 805.872,483.000 805.872,473.000 L 805.872,444.045 Q 805.872,434.045 815.872,434.045 L 833.708,434.045" fill="none" stroke="#2F3B4D" stroke-width="2"    stroke-linecap="round" stroke-linejoin="round" /><g transform="translate(833.71 434.04) rotate(0.00)"><polygon points="0,0 -7.50,3.90 -7.50,-3.90" fill="#2F3B4D"/></g><rect data-edge-id="edge-7" data-label-kind="center" x="745.36" y="490.81" width="121.03" height="28.40" rx="2" ry="2" fill="rgba(248,250,252, 0.92)" fill-opacity="0.00" stroke="#7B88A8" stroke-opacity="0.00" stroke-width="0.8"/><g class="edgeLabel" data-edge-id="edge-7" data-label-kind="center"><text x="805.87" y="509.01" text-anchor="middle" font-family="trebuchet ms,verdana,arial,DejaVu Sans,Liberation Sans,sans-serif,Noto Color Emoji,Apple Color Emoji,Segoe UI Emoji" font-size="16" fill="#333333"><tspan x="805.87" dy="0.00">allocated-to</tspan></text></g><path id="edge-8" class="edgePath" data-edge-id="edge-8" d="M 705.008,483.000 L 705.008,493.125 L 705.008,311.880 Q 705.008,301.880 715.008,301.880 L 844.498,301.880 Q 850.512,301.880 850.512,307.894 L 850.512,315.245" fill="none" stroke="#2F3B4D" stroke-width="2"    stroke-linecap="round" stroke-linejoin="round" /><g transform="translate(850.51 315.24) rotate(90.00)"><polygon points="0,0 -7.50,3.90 -7.50,-3.90" fill="#2F3B4D"/></g><rect data-edge-id="edge-8" data-label-kind="center" x="701.78" y="301.27" width="139.70" height="28.40" rx="2" ry="2" fill="rgba(248,250,252, 0.92)" fill-opacity="0.95" stroke="#7B88A8" stroke-opacity="0.45" stroke-width="0.8"/><g class="edgeLabel" data-edge-id="edge-8" data-label-kind="center"><text x="771.63" y="319.47" text-anchor="middle" font-family="trebuchet ms,verdana,arial,DejaVu Sans,Liberation Sans,sans-serif,Noto Color Emoji,Apple Color Emoji,Segoe UI Emoji" font-size="16" fill="#333333"><tspan x="771.63" dy="0.00">contributes-to</tspan></text></g><path id="edge-9" class="edgePath" data-edge-id="edge-9" d="M 677.002,406.416 L 823.708,406.416 Q 833.708,406.416 833.708,416.416 L 833.708,430.050 L 833.708,409.283" fill="none" stroke="#2F3B4D" stroke-width="2"    stroke-linecap="round" stroke-linejoin="round" /><g transform="translate(833.71 409.28) rotate(-90.00)"><polygon points="0,0 -7.50,3.90 -7.50,-3.90" fill="#2F3B4D"/></g><rect data-edge-id="edge-9" data-label-kind="center" x="694.84" y="408.42" width="121.03" height="28.40" rx="2" ry="2" fill="rgba(248,250,252, 0.92)" fill-opacity="0.00" stroke="#7B88A8" stroke-opacity="0.00" stroke-width="0.8"/><g class="edgeLabel" data-edge-id="edge-9" data-label-kind="center"><text x="755.35" y="426.62" text-anchor="middle" font-family="trebuchet ms,verdana,arial,DejaVu Sans,Liberation Sans,sans-serif,Noto Color Emoji,Apple Color Emoji,Segoe UI Emoji" font-size="16" fill="#333333"><tspan x="755.35" dy="0.00">allocated-to</tspan></text></g><path id="edge-10" class="edgePath" data-edge-id="edge-10" d="M 677.002,369.318 L 840.512,369.318 Q 850.512,369.318 850.512,359.318 L 850.512,315.245" fill="none" stroke="#2F3B4D" stroke-width="2"    stroke-linecap="round" stroke-linejoin="round" /><g transform="translate(850.51 315.24) rotate(-90.00)"><polygon points="0,0 -7.50,3.90 -7.50,-3.90" fill="#2F3B4D"/></g><rect data-edge-id="edge-10" data-label-kind="center" x="847.46" y="335.08" width="139.70" height="28.40" rx="2" ry="2" fill="rgba(248,250,252, 0.92)" fill-opacity="0.95" stroke="#7B88A8" stroke-opacity="0.45" stroke-width="0.8"/><g class="edgeLabel" data-edge-id="edge-10" data-label-kind="center"><text x="917.31" y="353.28" text-anchor="middle" font-family="trebuchet ms,verdana,arial,DejaVu Sans,Liberation Sans,sans-serif,Noto Color Emoji,Apple Color Emoji,Segoe UI Emoji" font-size="16" fill="#333333"><tspan x="917.31" dy="0.00">contributes-to</tspan></text></g><path id="edge-11" class="edgePath" data-edge-id="edge-11" d="M 292.055,256.776 L 356.141,256.776 Q 366.141,256.776 366.141,246.776 L 366.141,212.103 Q 366.141,202.103 376.141,202.103 L 411.617,202.103" fill="none" stroke="#2F3B4D" stroke-width="2"    stroke-linecap="round" stroke-linejoin="round" /><g transform="translate(411.62 202.10) rotate(0.00)"><polygon points="0,0 -7.50,3.90 -7.50,-3.90" fill="#2F3B4D"/></g><rect data-edge-id="edge-11" data-label-kind="center" x="317.89" y="225.38" width="46.35" height="28.40" rx="2" ry="2" fill="rgba(248,250,252, 0.92)" fill-opacity="0.00" stroke="#7B88A8" stroke-opacity="0.00" stroke-width="0.8"/><g class="edgeLabel" data-edge-id="edge-11" data-label-kind="center"><text x="341.07" y="243.58" text-anchor="middle" font-family="trebuchet ms,verdana,arial,DejaVu Sans,Liberation Sans,sans-serif,Noto Color Emoji,Apple Color Emoji,Segoe UI Emoji" font-size="16" fill="#333333"><tspan x="341.07" dy="0.00">owns</tspan></text></g><path id="edge-12" class="edgePath" data-edge-id="edge-12" d="M 292.055,284.556 L 401.617,284.556 Q 411.617,284.556 411.617,274.556 L 411.617,259.621 L 411.617,279.086" fill="none" stroke="#2F3B4D" stroke-width="2"    stroke-linecap="round" stroke-linejoin="round" /><g transform="translate(411.62 279.09) rotate(90.00)"><polygon points="0,0 -7.50,3.90 -7.50,-3.90" fill="#2F3B4D"/></g><rect data-edge-id="edge-12" data-label-kind="center" x="354.76" y="286.46" width="46.35" height="28.40" rx="2" ry="2" fill="rgba(248,250,252, 0.92)" fill-opacity="0.00" stroke="#7B88A8" stroke-opacity="0.00" stroke-width="0.8"/><g class="edgeLabel" data-edge-id="edge-12" data-label-kind="center"><text x="377.93" y="304.66" text-anchor="middle" font-family="trebuchet ms,verdana,arial,DejaVu Sans,Liberation Sans,sans-serif,Noto Color Emoji,Apple Color Emoji,Segoe UI Emoji" font-size="16" fill="#333333"><tspan x="377.93" dy="0.00">owns</tspan></text></g><path id="edge-13" class="edgePath" data-edge-id="edge-13" d="M 292.055,308.776 L 328.230,308.776 Q 338.230,308.776 338.230,318.776 L 338.230,354.500 Q 338.230,364.500 348.230,364.500 L 411.617,364.500" fill="none" stroke="#2F3B4D" stroke-width="2"    stroke-linecap="round" stroke-linejoin="round" /><g transform="translate(411.62 364.50) rotate(0.00)"><polygon points="0,0 -7.50,3.90 -7.50,-3.90" fill="#2F3B4D"/></g><rect data-edge-id="edge-13" data-label-kind="center" x="351.75" y="366.50" width="46.35" height="28.40" rx="2" ry="2" fill="rgba(248,250,252, 0.92)" fill-opacity="0.00" stroke="#7B88A8" stroke-opacity="0.00" stroke-width="0.8"/><g class="edgeLabel" data-edge-id="edge-13" data-label-kind="center"><text x="374.92" y="384.70" text-anchor="middle" font-family="trebuchet ms,verdana,arial,DejaVu Sans,Liberation Sans,sans-serif,Noto Color Emoji,Apple Color Emoji,Segoe UI Emoji" font-size="16" fill="#333333"><tspan x="374.92" dy="0.00">owns</tspan></text></g><path id="edge-14" class="edgePath" data-edge-id="edge-14" d="M 686.337,617.500 L 823.708,617.500 Q 833.708,617.500 833.708,607.500 L 833.708,434.045" fill="none" stroke="#2F3B4D" stroke-width="2"    stroke-linecap="round" stroke-linejoin="round" /><g transform="translate(833.71 434.04) rotate(-90.00)"><polygon points="0,0 -7.50,3.90 -7.50,-3.90" fill="#2F3B4D"/></g><rect data-edge-id="edge-14" data-label-kind="center" x="691.99" y="587.10" width="121.03" height="28.40" rx="2" ry="2" fill="rgba(248,250,252, 0.92)" fill-opacity="0.00" stroke="#7B88A8" stroke-opacity="0.00" stroke-width="0.8"/><g class="edgeLabel" data-edge-id="edge-14" data-label-kind="center"><text x="752.50" y="605.30" text-anchor="middle" font-family="trebuchet ms,verdana,arial,DejaVu Sans,Liberation Sans,sans-serif,Noto Color Emoji,Apple Color Emoji,Segoe UI Emoji" font-size="16" fill="#333333"><tspan x="752.50" dy="0.00">allocated-to</tspan></text></g><path id="edge-15" class="edgePath" data-edge-id="edge-15" d="M 686.337,627.800 L 813.708,627.800 Q 823.708,627.800 823.708,617.800 L 823.708,325.245 Q 823.708,315.245 833.708,315.245 L 850.512,315.245" fill="none" stroke="#2F3B4D" stroke-width="2"    stroke-linecap="round" stroke-linejoin="round" /><g transform="translate(850.51 315.24) rotate(0.00)"><polygon points="0,0 -7.50,3.90 -7.50,-3.90" fill="#2F3B4D"/></g><rect data-edge-id="edge-15" data-label-kind="center" x="727.08" y="629.80" width="139.70" height="28.40" rx="2" ry="2" fill="rgba(248,250,252, 0.92)" fill-opacity="0.00" stroke="#7B88A8" stroke-opacity="0.00" stroke-width="0.8"/><g class="edgeLabel" data-edge-id="edge-15" data-label-kind="center"><text x="796.93" y="648.00" text-anchor="middle" font-family="trebuchet ms,verdana,arial,DejaVu Sans,Liberation Sans,sans-serif,Noto Color Emoji,Apple Color Emoji,Segoe UI Emoji" font-size="16" fill="#333333"><tspan x="796.93" dy="0.00">contributes-to</tspan></text></g><path id="edge-16" class="edgePath" data-edge-id="edge-16" d="M 254.713,46.424 L 254.713,58.634 Q 254.713,68.624 264.703,68.624 L 401.628,68.624 Q 411.617,68.624 411.617,58.634 L 411.617,46.424" fill="none" stroke="#2F3B4D" stroke-width="2"    stroke-linecap="round" stroke-linejoin="round" /><g transform="translate(411.62 46.42) rotate(-90.00)"><polygon points="0,0 -7.50,3.90 -7.50,-3.90" fill="#2F3B4D"/></g><rect data-edge-id="edge-16" data-label-kind="center" x="310.24" y="70.62" width="46.35" height="28.40" rx="2" ry="2" fill="rgba(248,250,252, 0.92)" fill-opacity="0.00" stroke="#7B88A8" stroke-opacity="0.00" stroke-width="0.8"/><g class="edgeLabel" data-edge-id="edge-16" data-label-kind="center"><text x="333.42" y="88.82" text-anchor="middle" font-family="trebuchet ms,verdana,arial,DejaVu Sans,Liberation Sans,sans-serif,Noto Color Emoji,Apple Color Emoji,Segoe UI Emoji" font-size="16" fill="#333333"><tspan x="333.42" dy="0.00">owns</tspan></text></g><path id="edge-17" class="edgePath" data-edge-id="edge-17" d="M 292.055,520.349 L 292.055,508.139 Q 292.055,498.149 302.045,498.149 L 401.628,498.149 Q 411.617,498.149 411.617,508.139 L 411.617,520.349" fill="none" stroke="#2F3B4D" stroke-width="2"    stroke-linecap="round" stroke-linejoin="round" /><g transform="translate(411.62 520.35) rotate(90.00)"><polygon points="0,0 -7.50,3.90 -7.50,-3.90" fill="#2F3B4D"/></g><rect data-edge-id="edge-17" data-label-kind="center" x="329.02" y="500.15" width="46.35" height="28.40" rx="2" ry="2" fill="rgba(248,250,252, 0.92)" fill-opacity="0.00" stroke="#7B88A8" stroke-opacity="0.00" stroke-width="0.8"/><g class="edgeLabel" data-edge-id="edge-17" data-label-kind="center"><text x="352.19" y="518.35" text-anchor="middle" font-family="trebuchet ms,verdana,arial,DejaVu Sans,Liberation Sans,sans-serif,Noto Color Emoji,Apple Color Emoji,Segoe UI Emoji" font-size="16" fill="#333333"><tspan x="352.19" dy="0.00">owns</tspan></text></g><rect x="8.00" y="611.19" width="293.39" height="54.00" rx="3" ry="3" fill="#ECECFF" stroke="#7B88A8" stroke-width="1" stroke-linejoin="round" stroke-linecap="round"/><text x="154.70" y="642.19" text-anchor="middle" font-family="trebuchet ms,verdana,arial,DejaVu Sans,Liberation Sans,sans-serif,Noto Color Emoji,Apple Color Emoji,Segoe UI Emoji" font-size="16" fill="#333333"><tspan x="154.70" dy="0.00">DiagnosticReporter (unit)</tspan></text><rect x="833.71" y="381.04" width="246.71" height="54.00" rx="3" ry="3" fill="#ECECFF" stroke="#7B88A8" stroke-width="1" stroke-linejoin="round" stroke-linecap="round"/><text x="957.06" y="412.04" text-anchor="middle" font-family="trebuchet ms,verdana,arial,DejaVu Sans,Liberation Sans,sans-serif,Noto Color Emoji,Apple Color Emoji,Segoe UI Emoji" font-size="16" fill="#333333"><tspan x="957.06" dy="0.00">FyneHost (container)</tspan></text><rect x="411.62" y="126.50" width="237.38" height="78.00" rx="3" ry="3" fill="#ECECFF" stroke="#7B88A8" stroke-width="1" stroke-linejoin="round" stroke-linecap="round"/><text x="530.31" y="157.50" text-anchor="middle" font-family="trebuchet ms,verdana,arial,DejaVu Sans,Liberation Sans,sans-serif,Noto Color Emoji,Apple Color Emoji,Segoe UI Emoji" font-size="16" fill="#333333"><tspan x="530.31" dy="0.00">KeepLastValidModels</tspan><tspan x="530.31" dy="24.00">(functionality)</tspan></text><rect x="850.51" y="262.24" width="293.39" height="54.00" rx="3" ry="3" fill="#ECECFF" stroke="#7B88A8" stroke-width="1" stroke-linejoin="round" stroke-linecap="round"/><text x="997.21" y="293.24" text-anchor="middle" font-family="trebuchet ms,verdana,arial,DejaVu Sans,Liberation Sans,sans-serif,Noto Color Emoji,Apple Color Emoji,Segoe UI Emoji" font-size="16" fill="#333333"><tspan x="997.21" dy="0.00">LiveModelReload (feature)</tspan></text><rect x="411.62" y="8.00" width="246.71" height="78.00" rx="3" ry="3" fill="#ECECFF" stroke="#7B88A8" stroke-width="1" stroke-linejoin="round" stroke-linecap="round"/><text x="534.97" y="39.00" text-anchor="middle" font-family="trebuchet ms,verdana,arial,DejaVu Sans,Liberation Sans,sans-serif,Noto Color Emoji,Apple Color Emoji,Segoe UI Emoji" font-size="16" fill="#333333"><tspan x="534.97" dy="0.00">ObserveSourceChanges</tspan><tspan x="534.97" dy="24.00">(functionality)</tspan></text><rect x="411.62" y="245.00" width="265.38" height="78.00" rx="3" ry="3" fill="#ECECFF" stroke="#7B88A8" stroke-width="1" stroke-linejoin="round" stroke-linecap="round"/><text x="544.31" y="276.00" text-anchor="middle" font-family="trebuchet ms,verdana,arial,DejaVu Sans,Liberation Sans,sans-serif,Noto Color Emoji,Apple Color Emoji,Segoe UI Emoji" font-size="16" fill="#333333"><tspan x="544.31" dy="0.00">PrepareCandidateModels</tspan><tspan x="544.31" dy="24.00">(functionality)</tspan></text><rect x="411.62" y="482.00" width="293.39" height="78.00" rx="3" ry="3" fill="#ECECFF" stroke="#7B88A8" stroke-width="1" stroke-linejoin="round" stroke-linecap="round"/><text x="558.31" y="513.00" text-anchor="middle" font-family="trebuchet ms,verdana,arial,DejaVu Sans,Liberation Sans,sans-serif,Noto Color Emoji,Apple Color Emoji,Segoe UI Emoji" font-size="16" fill="#333333"><tspan x="558.31" dy="0.00">PreserveCompatibleUiState</tspan><tspan x="558.31" dy="24.00">(functionality)</tspan></text><rect x="411.62" y="363.50" width="265.38" height="78.00" rx="3" ry="3" fill="#ECECFF" stroke="#7B88A8" stroke-width="1" stroke-linejoin="round" stroke-linecap="round"/><text x="544.31" y="394.50" text-anchor="middle" font-family="trebuchet ms,verdana,arial,DejaVu Sans,Liberation Sans,sans-serif,Noto Color Emoji,Apple Color Emoji,Segoe UI Emoji" font-size="16" fill="#333333"><tspan x="544.31" dy="0.00">PublishModelGeneration</tspan><tspan x="544.31" dy="24.00">(functionality)</tspan></text><rect x="8.00" y="255.78" width="284.06" height="54.00" rx="3" ry="3" fill="#ECECFF" stroke="#7B88A8" stroke-width="1" stroke-linejoin="round" stroke-linecap="round"/><text x="150.03" y="286.78" text-anchor="middle" font-family="trebuchet ms,verdana,arial,DejaVu Sans,Liberation Sans,sans-serif,Noto Color Emoji,Apple Color Emoji,Segoe UI Emoji" font-size="16" fill="#333333"><tspan x="150.03" dy="0.00">ReloadCoordinator (unit)</tspan></text><rect x="411.62" y="600.50" width="274.72" height="78.00" rx="3" ry="3" fill="#ECECFF" stroke="#7B88A8" stroke-width="1" stroke-linejoin="round" stroke-linecap="round"/><text x="548.98" y="631.50" text-anchor="middle" font-family="trebuchet ms,verdana,arial,DejaVu Sans,Liberation Sans,sans-serif,Noto Color Emoji,Apple Color Emoji,Segoe UI Emoji" font-size="16" fill="#333333"><tspan x="548.98" dy="0.00">ReportSourceDiagnostics</tspan><tspan x="548.98" dy="24.00">(functionality)</tspan></text><rect x="8.00" y="18.85" width="246.71" height="54.00" rx="3" ry="3" fill="#ECECFF" stroke="#7B88A8" stroke-width="1" stroke-linejoin="round" stroke-linecap="round"/><text x="131.36" y="49.85" text-anchor="middle" font-family="trebuchet ms,verdana,arial,DejaVu Sans,Liberation Sans,sans-serif,Noto Color Emoji,Apple Color Emoji,Segoe UI Emoji" font-size="16" fill="#333333"><tspan x="131.36" dy="0.00">SourceWatcher (unit)</tspan></text><rect x="8.00" y="492.70" width="284.06" height="54.00" rx="3" ry="3" fill="#ECECFF" stroke="#7B88A8" stroke-width="1" stroke-linejoin="round" stroke-linecap="round"/><text x="150.03" y="523.70" text-anchor="middle" font-family="trebuchet ms,verdana,arial,DejaVu Sans,Liberation Sans,sans-serif,Noto Color Emoji,Apple Color Emoji,Segoe UI Emoji" font-size="16" fill="#333333"><tspan x="150.03" dy="0.00">UiStateReconciler (unit)</tspan></text></svg>