<svg xmlns="http://www.w3.org/2000/svg" width="1157.303" height="742.59576" viewBox="0 0 1157.303 742.59576"><rect x="0" y="0" width="1157.303" height="742.59576" fill="#FFFFFF"/><defs><marker id="arrow-0" viewBox="0 0 10 10" refX="5" refY="5" markerUnits="userSpaceOnUse" markerWidth="8" markerHeight="8" orient="auto"><path d="M 0 0 L 10 5 L 0 10 z" fill="#2F3B4D" stroke="#2F3B4D" stroke-width="1" stroke-dasharray="1,0"/></marker><marker id="arrow-start-0" viewBox="0 0 10 10" refX="4.5" refY="5" markerUnits="userSpaceOnUse" markerWidth="8" markerHeight="8" orient="auto"><path d="M 0 5 L 10 10 L 10 0 z" fill="#2F3B4D" stroke="#2F3B4D" stroke-width="1" stroke-dasharray="1,0"/></marker></defs><path id="edge-0" class="edgePath" data-edge-id="edge-0" d="M 232.035,330.929 L 406.509,330.929 Q 416.509,330.929 416.509,340.929 L 416.509,355.587 L 416.509,335.846" fill="none" stroke="#2F3B4D" stroke-width="2"    stroke-linecap="round" stroke-linejoin="round" /><g transform="translate(416.51 335.85) rotate(-90.00)"><polygon points="0,0 -7.50,3.90 -7.50,-3.90" fill="#2F3B4D"/></g><rect data-edge-id="edge-0" data-label-kind="center" x="347.96" y="332.76" width="46.35" height="28.40" rx="2" ry="2" fill="rgba(248,250,252, 0.92)" fill-opacity="0.00" stroke="#7B88A8" stroke-opacity="0.00" stroke-width="0.8"/><g class="edgeLabel" data-edge-id="edge-0" data-label-kind="center"><text x="371.14" y="350.96" text-anchor="middle" font-family="trebuchet ms,verdana,arial,DejaVu Sans,Liberation Sans,sans-serif,Noto Color Emoji,Apple Color Emoji,Segoe UI Emoji" font-size="16" fill="#333333"><tspan x="371.14" dy="0.00">owns</tspan></text></g><path id="edge-1" class="edgePath" data-edge-id="edge-1" d="M 678.368,139.346 L 816.445,139.346 Q 826.445,139.346 826.445,129.346 L 826.445,38.346 L 826.445,309.171 Q 826.445,313.491 830.765,313.491 L 836.045,313.491" fill="none" stroke="#2F3B4D" stroke-width="2"    stroke-linecap="round" stroke-linejoin="round" /><g transform="translate(836.04 313.49) rotate(0.00)"><polygon points="0,0 -7.50,3.90 -7.50,-3.90" fill="#2F3B4D"/></g><rect data-edge-id="edge-1" data-label-kind="center" x="756.60" y="8.00" width="139.70" height="28.40" rx="2" ry="2" fill="rgba(248,250,252, 0.92)" fill-opacity="0.00" stroke="#7B88A8" stroke-opacity="0.00" stroke-width="0.8"/><g class="edgeLabel" data-edge-id="edge-1" data-label-kind="center"><text x="826.44" y="26.20" text-anchor="middle" font-family="trebuchet ms,verdana,arial,DejaVu Sans,Liberation Sans,sans-serif,Noto Color Emoji,Apple Color Emoji,Segoe UI Emoji" font-size="16" fill="#333333"><tspan x="826.44" dy="0.00">contributes-to</tspan></text></g><path id="edge-2" class="edgePath" data-edge-id="edge-2" d="M 635.215,256.596 L 806.445,256.596 Q 816.445,256.596 816.445,266.596 L 816.445,310.213 Q 816.445,314.713 820.945,314.713 L 826.445,314.713 L 836.045,314.713" fill="none" stroke="#2F3B4D" stroke-width="2"    stroke-linecap="round" stroke-linejoin="round" /><g transform="translate(836.04 314.71) rotate(0.00)"><polygon points="0,0 -7.50,3.90 -7.50,-3.90" fill="#2F3B4D"/></g><rect data-edge-id="edge-2" data-label-kind="center" x="655.98" y="226.30" width="139.70" height="28.40" rx="2" ry="2" fill="rgba(248,250,252, 0.92)" fill-opacity="0.00" stroke="#7B88A8" stroke-opacity="0.00" stroke-width="0.8"/><g class="edgeLabel" data-edge-id="edge-2" data-label-kind="center"><text x="725.83" y="244.50" text-anchor="middle" font-family="trebuchet ms,verdana,arial,DejaVu Sans,Liberation Sans,sans-serif,Noto Color Emoji,Apple Color Emoji,Segoe UI Emoji" font-size="16" fill="#333333"><tspan x="725.83" dy="0.00">contributes-to</tspan></text></g><path id="edge-3" class="edgePath" data-edge-id="edge-3" d="M 691.228,491.096 L 698.784,491.096 Q 704.966,491.096 704.966,497.278 L 704.966,519.184 Q 704.966,529.184 714.966,529.184 L 819.241,529.184" fill="none" stroke="#2F3B4D" stroke-width="2"    stroke-linecap="round" stroke-linejoin="round" /><g transform="translate(819.24 529.18) rotate(0.00)"><polygon points="0,0 -7.50,3.90 -7.50,-3.90" fill="#2F3B4D"/></g><rect data-edge-id="edge-3" data-label-kind="center" x="740.87" y="452.37" width="121.03" height="28.40" rx="2" ry="2" fill="rgba(248,250,252, 0.92)" fill-opacity="0.00" stroke="#7B88A8" stroke-opacity="0.00" stroke-width="0.8"/><g class="edgeLabel" data-edge-id="edge-3" data-label-kind="center"><text x="801.39" y="470.57" text-anchor="middle" font-family="trebuchet ms,verdana,arial,DejaVu Sans,Liberation Sans,sans-serif,Noto Color Emoji,Apple Color Emoji,Segoe UI Emoji" font-size="16" fill="#333333"><tspan x="801.39" dy="0.00">allocated-to</tspan></text></g><path id="edge-4" class="edgePath" data-edge-id="edge-4" d="M 691.228,418.280 L 800.086,418.280 Q 810.086,418.280 810.086,408.280 L 810.086,399.491 Q 810.086,389.491 820.086,389.491 L 836.045,389.491" fill="none" stroke="#2F3B4D" stroke-width="2"    stroke-linecap="round" stroke-linejoin="round" /><g transform="translate(836.04 389.49) rotate(0.00)"><polygon points="0,0 -7.50,3.90 -7.50,-3.90" fill="#2F3B4D"/></g><rect data-edge-id="edge-4" data-label-kind="center" x="704.30" y="420.28" width="139.70" height="28.40" rx="2" ry="2" fill="rgba(248,250,252, 0.92)" fill-opacity="0.00" stroke="#7B88A8" stroke-opacity="0.00" stroke-width="0.8"/><g class="edgeLabel" data-edge-id="edge-4" data-label-kind="center"><text x="774.15" y="438.48" text-anchor="middle" font-family="trebuchet ms,verdana,arial,DejaVu Sans,Liberation Sans,sans-serif,Noto Color Emoji,Apple Color Emoji,Segoe UI Emoji" font-size="16" fill="#333333"><tspan x="774.15" dy="0.00">contributes-to</tspan></text></g><path id="edge-5" class="edgePath" data-edge-id="edge-5" d="M 663.221,570.346 L 809.241,570.346 Q 819.241,570.346 819.241,560.346 L 819.241,540.565 L 819.241,555.184" fill="none" stroke="#2F3B4D" stroke-width="2"    stroke-linecap="round" stroke-linejoin="round" /><g transform="translate(819.24 555.18) rotate(90.00)"><polygon points="0,0 -7.50,3.90 -7.50,-3.90" fill="#2F3B4D"/></g><rect data-edge-id="edge-5" data-label-kind="center" x="686.70" y="540.98" width="121.03" height="28.40" rx="2" ry="2" fill="rgba(248,250,252, 0.92)" fill-opacity="0.95" stroke="#7B88A8" stroke-opacity="0.45" stroke-width="0.8"/><g class="edgeLabel" data-edge-id="edge-5" data-label-kind="center"><text x="747.21" y="559.18" text-anchor="middle" font-family="trebuchet ms,verdana,arial,DejaVu Sans,Liberation Sans,sans-serif,Noto Color Emoji,Apple Color Emoji,Segoe UI Emoji" font-size="16" fill="#333333"><tspan x="747.21" dy="0.00">allocated-to</tspan></text></g><path id="edge-6" class="edgePath" data-edge-id="edge-6" d="M 663.221,548.346 L 670.777,548.346 Q 676.959,548.346 676.959,554.528 L 676.959,604.033 Q 676.959,614.033 666.959,614.033 L 18.000,614.033 Q 8.000,614.033 8.000,604.033 L 8.000,389.678 Q 8.000,379.678 18.000,379.678 L 831.629,379.678 Q 836.045,379.678 836.045,384.094 L 836.045,389.491" fill="none" stroke="#2F3B4D" stroke-width="2"    stroke-linecap="round" stroke-linejoin="round" /><g transform="translate(836.04 389.49) rotate(90.00)"><polygon points="0,0 -7.50,3.90 -7.50,-3.90" fill="#2F3B4D"/></g><rect data-edge-id="edge-6" data-label-kind="center" x="43.83" y="616.03" width="139.70" height="28.40" rx="2" ry="2" fill="rgba(248,250,252, 0.92)" fill-opacity="0.00" stroke="#7B88A8" stroke-opacity="0.00" stroke-width="0.8"/><g class="edgeLabel" data-edge-id="edge-6" data-label-kind="center"><text x="113.68" y="634.23" text-anchor="middle" font-family="trebuchet ms,verdana,arial,DejaVu Sans,Liberation Sans,sans-serif,Noto Color Emoji,Apple Color Emoji,Segoe UI Emoji" font-size="16" fill="#333333"><tspan x="113.68" dy="0.00">contributes-to</tspan></text></g><path id="edge-7" class="edgePath" data-edge-id="edge-7" d="M 288.048,528.646 L 351.614,528.646 Q 361.614,528.646 361.614,518.646 L 361.614,501.096 Q 361.614,491.096 371.614,491.096 L 416.509,491.096" fill="none" stroke="#2F3B4D" stroke-width="2"    stroke-linecap="round" stroke-linejoin="round" /><g transform="translate(416.51 491.10) rotate(0.00)"><polygon points="0,0 -7.50,3.90 -7.50,-3.90" fill="#2F3B4D"/></g><rect data-edge-id="edge-7" data-label-kind="center" x="313.86" y="461.61" width="46.35" height="28.40" rx="2" ry="2" fill="rgba(248,250,252, 0.92)" fill-opacity="0.00" stroke="#7B88A8" stroke-opacity="0.00" stroke-width="0.8"/><g class="edgeLabel" data-edge-id="edge-7" data-label-kind="center"><text x="337.04" y="479.81" text-anchor="middle" font-family="trebuchet ms,verdana,arial,DejaVu Sans,Liberation Sans,sans-serif,Noto Color Emoji,Apple Color Emoji,Segoe UI Emoji" font-size="16" fill="#333333"><tspan x="337.04" dy="0.00">owns</tspan></text></g><path id="edge-8" class="edgePath" data-edge-id="edge-8" d="M 288.048,565.033 L 406.509,565.033 Q 416.509,565.033 416.509,575.033 L 416.509,589.889 L 416.509,570.346" fill="none" stroke="#2F3B4D" stroke-width="2"    stroke-linecap="round" stroke-linejoin="round" /><g transform="translate(416.51 570.35) rotate(-90.00)"><polygon points="0,0 -7.50,3.90 -7.50,-3.90" fill="#2F3B4D"/></g><rect data-edge-id="edge-8" data-label-kind="center" x="356.65" y="566.53" width="46.35" height="28.40" rx="2" ry="2" fill="rgba(248,250,252, 0.92)" fill-opacity="0.00" stroke="#7B88A8" stroke-opacity="0.00" stroke-width="0.8"/><g class="edgeLabel" data-edge-id="edge-8" data-label-kind="center"><text x="379.83" y="584.73" text-anchor="middle" font-family="trebuchet ms,verdana,arial,DejaVu Sans,Liberation Sans,sans-serif,Noto Color Emoji,Apple Color Emoji,Segoe UI Emoji" font-size="16" fill="#333333"><tspan x="379.83" dy="0.00">owns</tspan></text></g><path id="edge-9" class="edgePath" data-edge-id="edge-9" d="M 288.048,603.033 L 323.186,603.033 Q 333.186,603.033 333.186,613.033 L 333.186,639.596 Q 333.186,649.596 343.186,649.596 L 416.509,649.596" fill="none" stroke="#2F3B4D" stroke-width="2"    stroke-linecap="round" stroke-linejoin="round" /><g transform="translate(416.51 649.60) rotate(0.00)"><polygon points="0,0 -7.50,3.90 -7.50,-3.90" fill="#2F3B4D"/></g><rect data-edge-id="edge-9" data-label-kind="center" x="297.26" y="651.50" width="46.35" height="28.40" rx="2" ry="2" fill="rgba(248,250,252, 0.92)" fill-opacity="0.00" stroke="#7B88A8" stroke-opacity="0.00" stroke-width="0.8"/><g class="edgeLabel" data-edge-id="edge-9" data-label-kind="center"><text x="320.44" y="669.70" text-anchor="middle" font-family="trebuchet ms,verdana,arial,DejaVu Sans,Liberation Sans,sans-serif,Noto Color Emoji,Apple Color Emoji,Segoe UI Emoji" font-size="16" fill="#333333"><tspan x="320.44" dy="0.00">owns</tspan></text></g><path id="edge-10" class="edgePath" data-edge-id="edge-10" d="M 306.720,138.694 L 306.720,125.057 Q 306.720,115.057 316.720,115.057 L 407.165,115.057 Q 416.509,115.057 416.509,124.400 L 416.509,135.820" fill="none" stroke="#2F3B4D" stroke-width="2"    stroke-linecap="round" stroke-linejoin="round" /><g transform="translate(416.51 135.82) rotate(90.00)"><polygon points="0,0 -7.50,3.90 -7.50,-3.90" fill="#2F3B4D"/></g><rect data-edge-id="edge-10" data-label-kind="center" x="313.20" y="84.66" width="46.35" height="28.40" rx="2" ry="2" fill="rgba(248,250,252, 0.92)" fill-opacity="0.00" stroke="#7B88A8" stroke-opacity="0.00" stroke-width="0.8"/><g class="edgeLabel" data-edge-id="edge-10" data-label-kind="center"><text x="336.38" y="102.86" text-anchor="middle" font-family="trebuchet ms,verdana,arial,DejaVu Sans,Liberation Sans,sans-serif,Noto Color Emoji,Apple Color Emoji,Segoe UI Emoji" font-size="16" fill="#333333"><tspan x="336.38" dy="0.00">owns</tspan></text></g><path id="edge-11" class="edgePath" data-edge-id="edge-11" d="M 306.720,180.694 L 306.720,173.516 Q 306.720,167.644 312.592,167.644 L 406.509,167.644 Q 416.509,167.644 416.509,177.644 L 416.509,198.995" fill="none" stroke="#2F3B4D" stroke-width="2"    stroke-linecap="round" stroke-linejoin="round" /><g transform="translate(416.51 198.99) rotate(90.00)"><polygon points="0,0 -7.50,3.90 -7.50,-3.90" fill="#2F3B4D"/></g><rect data-edge-id="edge-11" data-label-kind="center" x="350.80" y="139.85" width="46.35" height="28.40" rx="2" ry="2" fill="rgba(248,250,252, 0.92)" fill-opacity="0.95" stroke="#7B88A8" stroke-opacity="0.45" stroke-width="0.8"/><g class="edgeLabel" data-edge-id="edge-11" data-label-kind="center"><text x="373.98" y="158.05" text-anchor="middle" font-family="trebuchet ms,verdana,arial,DejaVu Sans,Liberation Sans,sans-serif,Noto Color Emoji,Apple Color Emoji,Segoe UI Emoji" font-size="16" fill="#333333"><tspan x="373.98" dy="0.00">owns</tspan></text></g><path id="edge-12" class="edgePath" data-edge-id="edge-12" d="M 653.886,649.596 L 667.623,649.596 L 795.503,649.596 Q 805.503,649.596 805.503,639.596 L 805.503,587.365 Q 805.503,581.184 811.685,581.184 L 819.241,581.184" fill="none" stroke="#2F3B4D" stroke-width="2"    stroke-linecap="round" stroke-linejoin="round" /><g transform="translate(819.24 581.18) rotate(0.00)"><polygon points="0,0 -7.50,3.90 -7.50,-3.90" fill="#2F3B4D"/></g><rect data-edge-id="edge-12" data-label-kind="center" x="744.99" y="651.50" width="121.03" height="28.40" rx="2" ry="2" fill="rgba(248,250,252, 0.92)" fill-opacity="0.00" stroke="#7B88A8" stroke-opacity="0.00" stroke-width="0.8"/><g class="edgeLabel" data-edge-id="edge-12" data-label-kind="center"><text x="805.50" y="669.70" text-anchor="middle" font-family="trebuchet ms,verdana,arial,DejaVu Sans,Liberation Sans,sans-serif,Noto Color Emoji,Apple Color Emoji,Segoe UI Emoji" font-size="16" fill="#333333"><tspan x="805.50" dy="0.00">allocated-to</tspan></text></g><path id="edge-13" class="edgePath" data-edge-id="edge-13" d="M 653.886,649.596 L 653.886,644.199 Q 653.886,639.783 658.302,639.783 L 1131.303,639.783 Q 1141.303,639.783 1141.303,629.783 L 1141.303,409.303 Q 1141.303,399.303 1131.303,399.303 L 831.826,399.303 Q 827.410,399.303 827.410,394.888 L 827.410,393.376 Q 827.410,389.491 831.296,389.491 L 836.045,389.491" fill="none" stroke="#2F3B4D" stroke-width="2"    stroke-linecap="round" stroke-linejoin="round" /><g transform="translate(836.04 389.49) rotate(0.00)"><polygon points="0,0 -7.50,3.90 -7.50,-3.90" fill="#2F3B4D"/></g><rect data-edge-id="edge-13" data-label-kind="center" x="952.10" y="641.78" width="139.70" height="28.40" rx="2" ry="2" fill="rgba(248,250,252, 0.92)" fill-opacity="0.00" stroke="#7B88A8" stroke-opacity="0.00" stroke-width="0.8"/><g class="edgeLabel" data-edge-id="edge-13" data-label-kind="center"><text x="1021.95" y="659.98" text-anchor="middle" font-family="trebuchet ms,verdana,arial,DejaVu Sans,Liberation Sans,sans-serif,Noto Color Emoji,Apple Color Emoji,Segoe UI Emoji" font-size="16" fill="#333333"><tspan x="1021.95" dy="0.00">contributes-to</tspan></text></g><path id="edge-14" class="edgePath" data-edge-id="edge-14" d="M 691.228,335.846 L 698.784,335.846 Q 704.966,335.846 711.114,336.487 L 816.159,347.450 Q 822.307,348.092 828.489,348.092 L 836.045,348.092" fill="none" stroke="#2F3B4D" stroke-width="2"    stroke-linecap="round" stroke-linejoin="round" /><g transform="translate(836.04 348.09) rotate(0.00)"><polygon points="0,0 -7.50,3.90 -7.50,-3.90" fill="#2F3B4D"/></g><rect data-edge-id="edge-14" data-label-kind="center" x="670.16" y="257.45" width="139.70" height="28.40" rx="2" ry="2" fill="rgba(248,250,252, 0.92)" fill-opacity="0.00" stroke="#7B88A8" stroke-opacity="0.00" stroke-width="0.8"/><g class="edgeLabel" data-edge-id="edge-14" data-label-kind="center"><text x="740.01" y="275.65" text-anchor="middle" font-family="trebuchet ms,verdana,arial,DejaVu Sans,Liberation Sans,sans-serif,Noto Color Emoji,Apple Color Emoji,Segoe UI Emoji" font-size="16" fill="#333333"><tspan x="740.01" dy="0.00">contributes-to</tspan></text></g><rect x="32.00" y="291.93" width="200.03" height="78.00" rx="3" ry="3" fill="#ECECFF" stroke="#7B88A8" stroke-width="1" stroke-linejoin="round" stroke-linecap="round"/><text x="132.02" y="322.93" text-anchor="middle" font-family="trebuchet ms,verdana,arial,DejaVu Sans,Liberation Sans,sans-serif,Noto Color Emoji,Apple Color Emoji,Segoe UI Emoji" font-size="16" fill="#333333"><tspan x="132.02" dy="0.00">CommandLineHost</tspan><tspan x="132.02" dy="24.00">(container)</tspan></text><rect x="416.51" y="62.35" width="261.86" height="78.00" rx="3" ry="3" fill="#ECECFF" stroke="#7B88A8" stroke-width="1" stroke-linejoin="round" stroke-linecap="round"/><text x="547.44" y="93.35" text-anchor="middle" font-family="trebuchet ms,verdana,arial,DejaVu Sans,Liberation Sans,sans-serif,Noto Color Emoji,Apple Color Emoji,Segoe UI Emoji" font-size="16" fill="#333333"><tspan x="547.44" dy="0.00">ComposeMarkdownDocume</tspan><tspan x="547.44" dy="24.00">nt (functionality)</tspan></text><rect x="836.04" y="312.49" width="237.38" height="78.00" rx="3" ry="3" fill="#ECECFF" stroke="#7B88A8" stroke-width="1" stroke-linejoin="round" stroke-linecap="round"/><text x="954.73" y="343.49" text-anchor="middle" font-family="trebuchet ms,verdana,arial,DejaVu Sans,Liberation Sans,sans-serif,Noto Color Emoji,Apple Color Emoji,Segoe UI Emoji" font-size="16" fill="#333333"><tspan x="954.73" dy="0.00">DesignDocumentation</tspan><tspan x="954.73" dy="24.00">(feature)</tspan></text><rect x="416.51" y="179.60" width="218.71" height="78.00" rx="3" ry="3" fill="#ECECFF" stroke="#7B88A8" stroke-width="1" stroke-linejoin="round" stroke-linecap="round"/><text x="525.86" y="210.60" text-anchor="middle" font-family="trebuchet ms,verdana,arial,DejaVu Sans,Liberation Sans,sans-serif,Noto Color Emoji,Apple Color Emoji,Segoe UI Emoji" font-size="16" fill="#333333"><tspan x="525.86" dy="0.00">ExportSvgSnapshot</tspan><tspan x="525.86" dy="24.00">(functionality)</tspan></text><rect x="416.51" y="414.10" width="274.72" height="78.00" rx="3" ry="3" fill="#ECECFF" stroke="#7B88A8" stroke-width="1" stroke-linejoin="round" stroke-linecap="round"/><text x="553.87" y="445.10" text-anchor="middle" font-family="trebuchet ms,verdana,arial,DejaVu Sans,Liberation Sans,sans-serif,Noto Color Emoji,Apple Color Emoji,Segoe UI Emoji" font-size="16" fill="#333333"><tspan x="553.87" dy="0.00">ExportViewpointMarkdown</tspan><tspan x="553.87" dy="24.00">(functionality)</tspan></text><rect x="416.51" y="531.35" width="246.71" height="78.00" rx="3" ry="3" fill="#ECECFF" stroke="#7B88A8" stroke-width="1" stroke-linejoin="round" stroke-linecap="round"/><text x="539.87" y="562.35" text-anchor="middle" font-family="trebuchet ms,verdana,arial,DejaVu Sans,Liberation Sans,sans-serif,Noto Color Emoji,Apple Color Emoji,Segoe UI Emoji" font-size="16" fill="#333333"><tspan x="539.87" dy="0.00">ProjectSdlViewpoints</tspan><tspan x="539.87" dy="24.00">(functionality)</tspan></text><rect x="32.00" y="526.03" width="256.05" height="78.00" rx="3" ry="3" fill="#ECECFF" stroke="#7B88A8" stroke-width="1" stroke-linejoin="round" stroke-linecap="round"/><text x="160.02" y="557.03" text-anchor="middle" font-family="trebuchet ms,verdana,arial,DejaVu Sans,Liberation Sans,sans-serif,Noto Color Emoji,Apple Color Emoji,Segoe UI Emoji" font-size="16" fill="#333333"><tspan x="160.02" dy="0.00">SdlViewpointGenerator</tspan><tspan x="160.02" dy="24.00">(unit)</tspan></text><rect x="32.00" y="127.69" width="274.72" height="54.00" rx="3" ry="3" fill="#ECECFF" stroke="#7B88A8" stroke-width="1" stroke-linejoin="round" stroke-linecap="round"/><text x="169.36" y="158.69" text-anchor="middle" font-family="trebuchet ms,verdana,arial,DejaVu Sans,Liberation Sans,sans-serif,Noto Color Emoji,Apple Color Emoji,Segoe UI Emoji" font-size="16" fill="#333333"><tspan x="169.36" dy="0.00">SduiPresentation (unit)</tspan></text><rect x="416.51" y="648.60" width="237.38" height="78.00" rx="3" ry="3" fill="#ECECFF" stroke="#7B88A8" stroke-width="1" stroke-linejoin="round" stroke-linecap="round"/><text x="535.20" y="679.60" text-anchor="middle" font-family="trebuchet ms,verdana,arial,DejaVu Sans,Liberation Sans,sans-serif,Noto Color Emoji,Apple Color Emoji,Segoe UI Emoji" font-size="16" fill="#333333"><tspan x="535.20" dy="0.00">TraceViewpointFacts</tspan><tspan x="535.20" dy="24.00">(functionality)</tspan></text><rect x="819.24" y="528.18" width="312.06" height="54.00" rx="3" ry="3" fill="#ECECFF" stroke="#7B88A8" stroke-width="1" stroke-linejoin="round" stroke-linecap="round"/><text x="975.27" y="559.18" text-anchor="middle" font-family="trebuchet ms,verdana,arial,DejaVu Sans,Liberation Sans,sans-serif,Noto Color Emoji,Apple Color Emoji,Segoe UI Emoji" font-size="16" fill="#333333"><tspan x="975.27" dy="0.00">ViewServiceHost (container)</tspan></text><rect x="416.51" y="296.85" width="274.72" height="78.00" rx="3" ry="3" fill="#ECECFF" stroke="#7B88A8" stroke-width="1" stroke-linejoin="round" stroke-linecap="round"/><text x="553.87" y="327.85" text-anchor="middle" font-family="trebuchet ms,verdana,arial,DejaVu Sans,Liberation Sans,sans-serif,Noto Color Emoji,Apple Color Emoji,Segoe UI Emoji" font-size="16" fill="#333333"><tspan x="553.87" dy="0.00">WriteGeneratedArtifacts</tspan><tspan x="553.87" dy="24.00">(functionality)</tspan></text></svg>