<svg xmlns="http://www.w3.org/2000/svg" width="1785.5863" height="733.6875" viewBox="0 0 1785.5863 733.6875"><rect x="0" y="0" width="1785.5863" height="733.6875" fill="#FFFFFF"/><defs><marker id="arrow-0" viewBox="0 0 10 10" refX="5" refY="5" markerUnits="userSpaceOnUse" markerWidth="8" markerHeight="8" orient="auto"><path d="M 0 0 L 10 5 L 0 10 z" fill="#2F3B4D" stroke="#2F3B4D" stroke-width="1" stroke-dasharray="1,0"/></marker><marker id="arrow-start-0" viewBox="0 0 10 10" refX="4.5" refY="5" markerUnits="userSpaceOnUse" markerWidth="8" markerHeight="8" orient="auto"><path d="M 0 5 L 10 10 L 10 0 z" fill="#2F3B4D" stroke="#2F3B4D" stroke-width="1" stroke-dasharray="1,0"/></marker></defs><path id="edge-0" class="edgePath" data-edge-id="edge-0" d="M 970.048,612.074 L 1073.298,612.074 Q 1083.298,612.074 1083.298,602.074 L 1083.298,589.351 L 1083.298,611.027" fill="none" stroke="#2F3B4D" stroke-width="2"    stroke-linecap="round" stroke-linejoin="round" /><g transform="translate(1083.30 611.03) rotate(90.00)"><polygon points="0,0 -7.50,3.90 -7.50,-3.90" fill="#2F3B4D"/></g><rect data-edge-id="edge-0" data-label-kind="center" x="1003.50" y="614.07" width="46.35" height="28.40" rx="2" ry="2" fill="rgba(248,250,252, 0.92)" fill-opacity="0.00" stroke="#7B88A8" stroke-opacity="0.00" stroke-width="0.8"/><g class="edgeLabel" data-edge-id="edge-0" data-label-kind="center"><text x="1026.67" y="632.27" text-anchor="middle" font-family="trebuchet ms,verdana,arial,DejaVu Sans,Liberation Sans,sans-serif,Noto Color Emoji,Apple Color Emoji,Segoe UI Emoji" font-size="16" fill="#333333"><tspan x="1026.67" dy="0.00">owns</tspan></text></g><path id="edge-1" class="edgePath" data-edge-id="edge-1" d="M 643.903,85.000 L 1420.013,85.000 Q 1430.013,85.000 1430.013,95.000 L 1430.013,562.500 Q 1430.013,572.500 1440.013,572.500 L 1502.009,572.500" fill="none" stroke="#2F3B4D" stroke-width="2"    stroke-linecap="round" stroke-linejoin="round" /><g transform="translate(1502.01 572.50) rotate(0.00)"><polygon points="0,0 -7.50,3.90 -7.50,-3.90" fill="#2F3B4D"/></g><rect data-edge-id="edge-1" data-label-kind="center" x="1033.31" y="87.00" width="139.70" height="28.40" rx="2" ry="2" fill="rgba(248,250,252, 0.92)" fill-opacity="0.00" stroke="#7B88A8" stroke-opacity="0.00" stroke-width="0.8"/><g class="edgeLabel" data-edge-id="edge-1" data-label-kind="center"><text x="1103.16" y="105.20" text-anchor="middle" font-family="trebuchet ms,verdana,arial,DejaVu Sans,Liberation Sans,sans-serif,Noto Color Emoji,Apple Color Emoji,Segoe UI Emoji" font-size="16" fill="#333333"><tspan x="1103.16" dy="0.00">contributes-to</tspan></text></g><path id="edge-2" class="edgePath" data-edge-id="edge-2" d="M 600.750,200.750 L 1492.009,200.750 Q 1502.009,200.750 1502.009,210.750 L 1502.009,572.500" fill="none" stroke="#2F3B4D" stroke-width="2"    stroke-linecap="round" stroke-linejoin="round" /><g transform="translate(1502.01 572.50) rotate(90.00)"><polygon points="0,0 -7.50,3.90 -7.50,-3.90" fill="#2F3B4D"/></g><rect data-edge-id="edge-2" data-label-kind="center" x="1011.73" y="202.75" width="139.70" height="28.40" rx="2" ry="2" fill="rgba(248,250,252, 0.92)" fill-opacity="0.00" stroke="#7B88A8" stroke-opacity="0.00" stroke-width="0.8"/><g class="edgeLabel" data-edge-id="edge-2" data-label-kind="center"><text x="1081.58" y="220.95" text-anchor="middle" font-family="trebuchet ms,verdana,arial,DejaVu Sans,Liberation Sans,sans-serif,Noto Color Emoji,Apple Color Emoji,Segoe UI Emoji" font-size="16" fill="#333333"><tspan x="1081.58" dy="0.00">contributes-to</tspan></text></g><path id="edge-3" class="edgePath" data-edge-id="edge-3" d="M 655.763,428.184 L 655.763,433.464 Q 655.763,437.784 660.083,437.784 L 1759.586,437.784 Q 1769.586,437.784 1769.586,447.784 L 1769.586,561.500 Q 1769.586,571.500 1759.586,571.500 L 1503.009,571.500" fill="none" stroke="#2F3B4D" stroke-width="2"    stroke-linecap="round" stroke-linejoin="round" /><g transform="translate(1503.01 571.50) rotate(180.00)"><polygon points="0,0 -7.50,3.90 -7.50,-3.90" fill="#2F3B4D"/></g><rect data-edge-id="edge-3" data-label-kind="center" x="1209.68" y="439.78" width="139.70" height="28.40" rx="2" ry="2" fill="rgba(248,250,252, 0.92)" fill-opacity="0.00" stroke="#7B88A8" stroke-opacity="0.00" stroke-width="0.8"/><g class="edgeLabel" data-edge-id="edge-3" data-label-kind="center"><text x="1279.53" y="457.98" text-anchor="middle" font-family="trebuchet ms,verdana,arial,DejaVu Sans,Liberation Sans,sans-serif,Noto Color Emoji,Apple Color Emoji,Segoe UI Emoji" font-size="16" fill="#333333"><tspan x="1279.53" dy="0.00">contributes-to</tspan></text></g><path id="edge-4" class="edgePath" data-edge-id="edge-4" d="M 627.756,543.934 L 627.756,553.885 Q 627.756,562.027 635.898,562.027 L 1362.855,562.027 Q 1368.018,562.027 1368.018,567.190 L 1368.018,568.337 Q 1368.018,573.500 1373.181,573.500 L 1497.789,573.500 Q 1503.009,573.500 1503.009,568.280 L 1503.009,561.900 L 1503.009,571.500" fill="none" stroke="#2F3B4D" stroke-width="2"    stroke-linecap="round" stroke-linejoin="round" /><g transform="translate(1503.01 571.50) rotate(90.00)"><polygon points="0,0 -7.50,3.90 -7.50,-3.90" fill="#2F3B4D"/></g><rect data-edge-id="edge-4" data-label-kind="center" x="1007.07" y="531.63" width="139.70" height="28.40" rx="2" ry="2" fill="rgba(248,250,252, 0.92)" fill-opacity="0.00" stroke="#7B88A8" stroke-opacity="0.00" stroke-width="0.8"/><g class="edgeLabel" data-edge-id="edge-4" data-label-kind="center"><text x="1076.92" y="549.83" text-anchor="middle" font-family="trebuchet ms,verdana,arial,DejaVu Sans,Liberation Sans,sans-serif,Noto Color Emoji,Apple Color Emoji,Segoe UI Emoji" font-size="16" fill="#333333"><tspan x="1076.92" dy="0.00">contributes-to</tspan></text></g><path id="edge-5" class="edgePath" data-edge-id="edge-5" d="M 264.048,464.452 L 322.382,464.452 Q 332.382,464.452 332.382,454.452 L 332.382,437.184 Q 332.382,427.184 342.382,427.184 L 382.044,427.184" fill="none" stroke="#2F3B4D" stroke-width="2"    stroke-linecap="round" stroke-linejoin="round" /><g transform="translate(382.04 427.18) rotate(0.00)"><polygon points="0,0 -7.50,3.90 -7.50,-3.90" fill="#2F3B4D"/></g><rect data-edge-id="edge-5" data-label-kind="center" x="285.48" y="426.09" width="46.35" height="28.40" rx="2" ry="2" fill="rgba(248,250,252, 0.92)" fill-opacity="0.95" stroke="#7B88A8" stroke-opacity="0.45" stroke-width="0.8"/><g class="edgeLabel" data-edge-id="edge-5" data-label-kind="center"><text x="308.65" y="444.29" text-anchor="middle" font-family="trebuchet ms,verdana,arial,DejaVu Sans,Liberation Sans,sans-serif,Noto Color Emoji,Apple Color Emoji,Segoe UI Emoji" font-size="16" fill="#333333"><tspan x="308.65" dy="0.00">owns</tspan></text></g><path id="edge-6" class="edgePath" data-edge-id="edge-6" d="M 264.048,502.188 L 372.044,502.188 Q 382.044,502.188 382.044,512.188 L 382.044,525.761 L 382.044,504.934" fill="none" stroke="#2F3B4D" stroke-width="2"    stroke-linecap="round" stroke-linejoin="round" /><g transform="translate(382.04 504.93) rotate(-90.00)"><polygon points="0,0 -7.50,3.90 -7.50,-3.90" fill="#2F3B4D"/></g><rect data-edge-id="edge-6" data-label-kind="center" x="322.19" y="504.09" width="46.35" height="28.40" rx="2" ry="2" fill="rgba(248,250,252, 0.92)" fill-opacity="0.00" stroke="#7B88A8" stroke-opacity="0.00" stroke-width="0.8"/><g class="edgeLabel" data-edge-id="edge-6" data-label-kind="center"><text x="345.36" y="522.29" text-anchor="middle" font-family="trebuchet ms,verdana,arial,DejaVu Sans,Liberation Sans,sans-serif,Noto Color Emoji,Apple Color Emoji,Segoe UI Emoji" font-size="16" fill="#333333"><tspan x="345.36" dy="0.00">owns</tspan></text></g><path id="edge-7" class="edgePath" data-edge-id="edge-7" d="M 264.048,540.188 L 297.946,540.188 Q 307.946,540.188 307.946,550.188 L 307.946,572.684 Q 307.946,582.684 317.946,582.684 L 382.044,582.684" fill="none" stroke="#2F3B4D" stroke-width="2"    stroke-linecap="round" stroke-linejoin="round" /><g transform="translate(382.04 582.68) rotate(0.00)"><polygon points="0,0 -7.50,3.90 -7.50,-3.90" fill="#2F3B4D"/></g><rect data-edge-id="edge-7" data-label-kind="center" x="292.52" y="584.58" width="46.35" height="28.40" rx="2" ry="2" fill="rgba(248,250,252, 0.92)" fill-opacity="0.00" stroke="#7B88A8" stroke-opacity="0.00" stroke-width="0.8"/><g class="edgeLabel" data-edge-id="edge-7" data-label-kind="center"><text x="315.70" y="602.78" text-anchor="middle" font-family="trebuchet ms,verdana,arial,DejaVu Sans,Liberation Sans,sans-serif,Noto Color Emoji,Apple Color Emoji,Segoe UI Emoji" font-size="16" fill="#333333"><tspan x="315.70" dy="0.00">owns</tspan></text></g><path id="edge-8" class="edgePath" data-edge-id="edge-8" d="M 282.720,93.678 L 289.987,93.678 Q 295.932,93.678 301.836,92.975 L 362.927,85.703 Q 368.831,85.000 374.777,85.000 L 382.044,85.000" fill="none" stroke="#2F3B4D" stroke-width="2"    stroke-linecap="round" stroke-linejoin="round" /><g transform="translate(382.04 85.00) rotate(0.00)"><polygon points="0,0 -7.50,3.90 -7.50,-3.90" fill="#2F3B4D"/></g><rect data-edge-id="edge-8" data-label-kind="center" x="315.18" y="55.80" width="46.35" height="28.40" rx="2" ry="2" fill="rgba(248,250,252, 0.92)" fill-opacity="0.00" stroke="#7B88A8" stroke-opacity="0.00" stroke-width="0.8"/><g class="edgeLabel" data-edge-id="edge-8" data-label-kind="center"><text x="338.36" y="74.00" text-anchor="middle" font-family="trebuchet ms,verdana,arial,DejaVu Sans,Liberation Sans,sans-serif,Noto Color Emoji,Apple Color Emoji,Segoe UI Emoji" font-size="16" fill="#333333"><tspan x="338.36" dy="0.00">owns</tspan></text></g><path id="edge-9" class="edgePath" data-edge-id="edge-9" d="M 282.720,135.678 L 282.720,126.300 Q 282.720,118.628 290.392,118.628 L 372.044,118.628 Q 382.044,118.628 382.044,128.628 L 382.044,145.978" fill="none" stroke="#2F3B4D" stroke-width="2"    stroke-linecap="round" stroke-linejoin="round" /><g transform="translate(382.04 145.98) rotate(90.00)"><polygon points="0,0 -7.50,3.90 -7.50,-3.90" fill="#2F3B4D"/></g><rect data-edge-id="edge-9" data-label-kind="center" x="309.21" y="120.63" width="46.35" height="28.40" rx="2" ry="2" fill="rgba(248,250,252, 0.92)" fill-opacity="0.00" stroke="#7B88A8" stroke-opacity="0.00" stroke-width="0.8"/><g class="edgeLabel" data-edge-id="edge-9" data-label-kind="center"><text x="332.38" y="138.83" text-anchor="middle" font-family="trebuchet ms,verdana,arial,DejaVu Sans,Liberation Sans,sans-serif,Noto Color Emoji,Apple Color Emoji,Segoe UI Emoji" font-size="16" fill="#333333"><tspan x="332.38" dy="0.00">owns</tspan></text></g><path id="edge-10" class="edgePath" data-edge-id="edge-10" d="M 619.421,620.684 L 760.013,620.684 Q 770.013,620.684 770.013,610.684 L 770.013,594.179 L 770.013,612.074" fill="none" stroke="#2F3B4D" stroke-width="2"    stroke-linecap="round" stroke-linejoin="round" /><g transform="translate(770.01 612.07) rotate(90.00)"><polygon points="0,0 -7.50,3.90 -7.50,-3.90" fill="#2F3B4D"/></g><rect data-edge-id="edge-10" data-label-kind="center" x="634.20" y="590.28" width="121.03" height="28.40" rx="2" ry="2" fill="rgba(248,250,252, 0.92)" fill-opacity="0.00" stroke="#7B88A8" stroke-opacity="0.00" stroke-width="0.8"/><g class="edgeLabel" data-edge-id="edge-10" data-label-kind="center"><text x="694.72" y="608.48" text-anchor="middle" font-family="trebuchet ms,verdana,arial,DejaVu Sans,Liberation Sans,sans-serif,Noto Color Emoji,Apple Color Emoji,Segoe UI Emoji" font-size="16" fill="#333333"><tspan x="694.72" dy="0.00">allocated-to</tspan></text></g><path id="edge-11" class="edgePath" data-edge-id="edge-11" d="M 619.421,636.684 L 625.948,636.684 Q 631.287,636.684 631.287,642.024 L 631.287,685.287 Q 631.287,695.287 641.287,695.287 L 1485.287,695.287 Q 1495.287,695.287 1495.287,685.287 L 1495.287,630.710 Q 1495.287,627.685 1498.312,627.685 L 1502.009,627.685" fill="none" stroke="#2F3B4D" stroke-width="2"    stroke-linecap="round" stroke-linejoin="round" /><g transform="translate(1502.01 627.69) rotate(0.00)"><polygon points="0,0 -7.50,3.90 -7.50,-3.90" fill="#2F3B4D"/></g><rect data-edge-id="edge-11" data-label-kind="center" x="990.27" y="697.29" width="139.70" height="28.40" rx="2" ry="2" fill="rgba(248,250,252, 0.92)" fill-opacity="0.00" stroke="#7B88A8" stroke-opacity="0.00" stroke-width="0.8"/><g class="edgeLabel" data-edge-id="edge-11" data-label-kind="center"><text x="1060.12" y="715.49" text-anchor="middle" font-family="trebuchet ms,verdana,arial,DejaVu Sans,Liberation Sans,sans-serif,Noto Color Emoji,Apple Color Emoji,Segoe UI Emoji" font-size="16" fill="#333333"><tspan x="1060.12" dy="0.00">contributes-to</tspan></text></g><path id="edge-12" class="edgePath" data-edge-id="edge-12" d="M 1358.018,611.027 L 1365.284,611.027 Q 1371.230,611.027 1377.160,611.464 L 1482.867,619.249 Q 1488.797,619.685 1494.742,619.685 L 1502.009,619.685" fill="none" stroke="#2F3B4D" stroke-width="2"    stroke-linecap="round" stroke-linejoin="round" /><g transform="translate(1502.01 619.69) rotate(0.00)"><polygon points="0,0 -7.50,3.90 -7.50,-3.90" fill="#2F3B4D"/></g><rect data-edge-id="edge-12" data-label-kind="center" x="1360.09" y="532.90" width="139.70" height="28.40" rx="2" ry="2" fill="rgba(248,250,252, 0.92)" fill-opacity="0.00" stroke="#7B88A8" stroke-opacity="0.00" stroke-width="0.8"/><g class="edgeLabel" data-edge-id="edge-12" data-label-kind="center"><text x="1429.93" y="551.10" text-anchor="middle" font-family="trebuchet ms,verdana,arial,DejaVu Sans,Liberation Sans,sans-serif,Noto Color Emoji,Apple Color Emoji,Segoe UI Emoji" font-size="16" fill="#333333"><tspan x="1429.93" dy="0.00">contributes-to</tspan></text></g><rect x="770.01" y="573.07" width="200.03" height="78.00" rx="3" ry="3" fill="#ECECFF" stroke="#7B88A8" stroke-width="1" stroke-linejoin="round" stroke-linecap="round"/><text x="870.03" y="604.07" text-anchor="middle" font-family="trebuchet ms,verdana,arial,DejaVu Sans,Liberation Sans,sans-serif,Noto Color Emoji,Apple Color Emoji,Segoe UI Emoji" font-size="16" fill="#333333"><tspan x="870.03" dy="0.00">CommandLineHost</tspan><tspan x="870.03" dy="24.00">(container)</tspan></text><rect x="382.04" y="8.00" width="261.86" height="78.00" rx="3" ry="3" fill="#ECECFF" stroke="#7B88A8" stroke-width="1" stroke-linejoin="round" stroke-linecap="round"/><text x="512.97" y="39.00" text-anchor="middle" font-family="trebuchet ms,verdana,arial,DejaVu Sans,Liberation Sans,sans-serif,Noto Color Emoji,Apple Color Emoji,Segoe UI Emoji" font-size="16" fill="#333333"><tspan x="512.97" dy="0.00">ComposeMarkdownDocume</tspan><tspan x="512.97" dy="24.00">nt (functionality)</tspan></text><rect x="1502.01" y="571.50" width="237.38" height="78.00" rx="3" ry="3" fill="#ECECFF" stroke="#7B88A8" stroke-width="1" stroke-linejoin="round" stroke-linecap="round"/><text x="1620.70" y="602.50" text-anchor="middle" font-family="trebuchet ms,verdana,arial,DejaVu Sans,Liberation Sans,sans-serif,Noto Color Emoji,Apple Color Emoji,Segoe UI Emoji" font-size="16" fill="#333333"><tspan x="1620.70" dy="0.00">DesignDocumentation</tspan><tspan x="1620.70" dy="24.00">(feature)</tspan></text><rect x="382.04" y="123.75" width="218.71" height="78.00" rx="3" ry="3" fill="#ECECFF" stroke="#7B88A8" stroke-width="1" stroke-linejoin="round" stroke-linecap="round"/><text x="491.40" y="154.75" text-anchor="middle" font-family="trebuchet ms,verdana,arial,DejaVu Sans,Liberation Sans,sans-serif,Noto Color Emoji,Apple Color Emoji,Segoe UI Emoji" font-size="16" fill="#333333"><tspan x="491.40" dy="0.00">ExportSvgSnapshot</tspan><tspan x="491.40" dy="24.00">(functionality)</tspan></text><rect x="382.04" y="350.18" width="274.72" height="78.00" rx="3" ry="3" fill="#ECECFF" stroke="#7B88A8" stroke-width="1" stroke-linejoin="round" stroke-linecap="round"/><text x="519.40" y="381.18" text-anchor="middle" font-family="trebuchet ms,verdana,arial,DejaVu Sans,Liberation Sans,sans-serif,Noto Color Emoji,Apple Color Emoji,Segoe UI Emoji" font-size="16" fill="#333333"><tspan x="519.40" dy="0.00">ExportViewpointMarkdown</tspan><tspan x="519.40" dy="24.00">(functionality)</tspan></text><rect x="382.04" y="465.93" width="246.71" height="78.00" rx="3" ry="3" fill="#ECECFF" stroke="#7B88A8" stroke-width="1" stroke-linejoin="round" stroke-linecap="round"/><text x="505.40" y="496.93" text-anchor="middle" font-family="trebuchet ms,verdana,arial,DejaVu Sans,Liberation Sans,sans-serif,Noto Color Emoji,Apple Color Emoji,Segoe UI Emoji" font-size="16" fill="#333333"><tspan x="505.40" dy="0.00">ProjectSdlViewpoints</tspan><tspan x="505.40" dy="24.00">(functionality)</tspan></text><rect x="8.00" y="463.19" width="256.05" height="78.00" rx="3" ry="3" fill="#ECECFF" stroke="#7B88A8" stroke-width="1" stroke-linejoin="round" stroke-linecap="round"/><text x="136.02" y="494.19" text-anchor="middle" font-family="trebuchet ms,verdana,arial,DejaVu Sans,Liberation Sans,sans-serif,Noto Color Emoji,Apple Color Emoji,Segoe UI Emoji" font-size="16" fill="#333333"><tspan x="136.02" dy="0.00">SdlViewpointGenerator</tspan><tspan x="136.02" dy="24.00">(unit)</tspan></text><rect x="8.00" y="82.68" width="274.72" height="54.00" rx="3" ry="3" fill="#ECECFF" stroke="#7B88A8" stroke-width="1" stroke-linejoin="round" stroke-linecap="round"/><text x="145.36" y="113.68" text-anchor="middle" font-family="trebuchet ms,verdana,arial,DejaVu Sans,Liberation Sans,sans-serif,Noto Color Emoji,Apple Color Emoji,Segoe UI Emoji" font-size="16" fill="#333333"><tspan x="145.36" dy="0.00">SduiPresentation (unit)</tspan></text><rect x="382.04" y="581.68" width="237.38" height="78.00" rx="3" ry="3" fill="#ECECFF" stroke="#7B88A8" stroke-width="1" stroke-linejoin="round" stroke-linecap="round"/><text x="500.73" y="612.68" text-anchor="middle" font-family="trebuchet ms,verdana,arial,DejaVu Sans,Liberation Sans,sans-serif,Noto Color Emoji,Apple Color Emoji,Segoe UI Emoji" font-size="16" fill="#333333"><tspan x="500.73" dy="0.00">TraceViewpointFacts</tspan><tspan x="500.73" dy="24.00">(functionality)</tspan></text><rect x="1083.30" y="572.03" width="274.72" height="78.00" rx="3" ry="3" fill="#ECECFF" stroke="#7B88A8" stroke-width="1" stroke-linejoin="round" stroke-linecap="round"/><text x="1220.66" y="603.03" text-anchor="middle" font-family="trebuchet ms,verdana,arial,DejaVu Sans,Liberation Sans,sans-serif,Noto Color Emoji,Apple Color Emoji,Segoe UI Emoji" font-size="16" fill="#333333"><tspan x="1220.66" dy="0.00">WriteGeneratedArtifacts</tspan><tspan x="1220.66" dy="24.00">(functionality)</tspan></text></svg>